<svg id="Layer_1" data-name="Layer 1" xmlns="http://www.w3.org/2000/svg" viewBox="0 0 445.66 455.1"><defs><style>.cls-1{fill:#fefefe;}.cls-2{fill:#f6e2e4;}.cls-3{fill:#020202;}</style></defs><title>logo-simple</title><path class="cls-1" d="M458.94,262.41c-1-.28-1.95-.43-2.91-.69-6.36-1.73-11.26-3.58-14.49-11.24-3.06-7.25-5.49-15.85-12.48-21.39-1.38-1.09-1.49-4.2-1.56-6.4-.06-1.75.88-3.52,1.29-5.3.83-3.64,2.36-7.13-.32-10.92-1.21-1.71-1.47-4.55-1.19-6.75,1-7.54-4-11.44-8.8-15.61-.94-.82-2.12-1.83-2.36-2.93-1.36-6.36-5.83-9.92-11.14-12.65a94.88,94.88,0,0,0-13.13-6c-14-4.65-21.83-16.51-31.49-26.19-3.7-3.71-5.92-8.85-9.48-12.74a43.75,43.75,0,0,0-10-7.67c-4.33-2.58-9-4.53-13.56-6.75-2.54-1.25-5.09-2.48-7.62-3.76-8.57-4.34-17.09-8.76-25.7-13-4.6-2.27-9.42-4.1-13.94-6.5-1.64-.87-3.72-2.7-3.9-4.28,0-.28-.05-.56-.08-.83a12,12,0,0,1-3.36.47c-10.18,0-13.19-11.09-9.07-17.7q-1.83-1.74-3.59-3.51l-.12-.13c-.24.14-.49.28-.73.43-9,5.86-17.82,12.2-27.19,17.47-6.42,3.61-13.77,5.54-20.52,8.64-3.58,1.64-6.6,4.49-10.13,6.26-7.86,3.94-15.61,8.39-23.91,11.1-12.36,4-22.46,10.69-29.84,21.29-6.65,9.54-15.84,15.56-26.4,19.66C105.52,150.83,93,161,81.83,173.42,75.65,180.34,68,186,61.8,192.87,51.5,204.32,42,216.52,31.79,228c-3.22,3.62-7.82,6-11.79,9v3c1.33,2.74,4.06,5.67,3.72,8.19-1.1,8.12,3.48,13.82,7.61,19.34,4.74,6.35,6.92,12.1,4.14,20.12-2.91,8.42,4.29,24.91,12.35,30.2,4.32,2.83,6.59,6.05,6.22,11.43-.39,5.8.81,6.93,6.49,6.71,4.28-.17,8.53-1,12.8-1.51,1.07-.12,2.16,0,3.92,0-.79,2-2,3.59-1.82,5,.24,2.5.65,5.48,2.19,7.18,1,1.13,4.33,1,6.23.34,2.93-1,4.77-1.31,6.57,1.85,4,7.09,8.15,8,15.19,3.83,2.07-1.23,4.1-2.52,7.17-4.41-.36,4.07-.66,6.91-.85,9.77-.28,4.17,1.69,6.62,5.88,6a74.1,74.1,0,0,0,12.89-3.34c3.27-1.15,6.3-3,9.4-4.63,2.72-1.41,4.3-.93,5,2.34a34.61,34.61,0,0,0,2.4,7.56c1.34,2.93,2.41,6.89,6.8,6s3.65-4.85,3.85-8.13c.19-3.07.58-6.12.92-9.63,5.49,1.81,10.27,3.17,14.84,5,1.49.61,2.43,2.54,3.62,3.87.34-3.1,2.41-4,5-3.24,4,1.1,8.35,1.8,11.59,4.06,8,5.6,16.4,5.46,25.19,3.22,16.36-4.17,32.89-7.66,49.84-7.06,10.38.37,20.69,2.42,31.07,3.37,3.72.34,7.53-.42,11.3-.47,1,0,2,.72,3.06,1.11,2.83-3.24,5.6-6.62,10.66-4.22,2.25-.4,4.54-.68,6.75-1.23,2.55-.63,5.37-1,7.48-2.38,6.39-4.17,13.24-5.67,20.8-5.81,3.09-.06,7.26-1.62,9-4,3.35-4.54,7.57-6,12.48-5.74,7.25.38,13.12-2.3,18.93-6.26,6.95-4.74,14.43-8.69,21.48-13.3a194.32,194.32,0,0,0,16.35-11.91,9.07,9.07,0,0,0,2.84-5.95c.38-7.08,4.47-11.1,10.27-14.08,2.22-1.14,4.34-2.46,6.51-3.7,1.73-4.24,3.25-8.57,5.22-12.7C466.48,266.05,465.94,264.48,458.94,262.41ZM249.35,72.17c-.28,0-.55.07-.83.13l1-.81C249.48,71.72,249.41,71.94,249.35,72.17ZM267.28,84.5c0,.26-.11.49-.18.72-.1-.4-.22-.78-.34-1.17a8.06,8.06,0,0,0,.7-.59C267.41,83.81,267.34,84.16,267.28,84.5Z" transform="translate(-20 -59.9)"/><path class="cls-1" d="M151.75,331.11l.49-1.35c3,.92,5.91,1.82,8.85,2.78,16,5.21,32.53,6.52,49.19,5.09,12.51-1.07,24.94-3.09,37.41-4.62,6.24-.77,12.53-1.16,18.71-2.2,1.87-.31,3.48-2.21,5.21-3.38a38.14,38.14,0,0,0-4.08-4.58c-7.65-6.27-16.59-4.47-25.27-3.65-12.52,1.18-25,2.67-37.51,3.89-7.09.69-14.2,1.49-21.31,1.58-14.62.17-29.26.34-43.85-.38-8.13-.4-16.18-2.59-24.26-4l-1.14.65c2.8,3.44,4.94,8.25,8.56,10,6.78,3.28,14.31,5.27,21.73,6.92,9.51,2.12,19.21,3.43,28.85,4.94,1.59.25,3.29-.25,4.94-.4l-.08-.76Z" transform="translate(-20 -59.9)"/><path class="cls-1" d="M188.23,203.61c-13.51-10-29-17.56-38.36-32.66l-2.3,1-3.31,1.43C155.83,188.81,172.35,195.73,188.23,203.61Z" transform="translate(-20 -59.9)"/><path class="cls-2" d="M159.18,487.85l.28.61-.6-.29Z" transform="translate(-20 -59.9)"/><path class="cls-2" d="M198.75,233.6l.12-.33a1,1,0,0,1,.36.15s-.07.21-.1.32Z" transform="translate(-20 -59.9)"/><path class="cls-2" d="M162.53,218.67c.07.12.19.24.18.35s-.16.2-.24.3C162.49,219.1,162.51,218.89,162.53,218.67Z" transform="translate(-20 -59.9)"/><path class="cls-2" d="M92.19,289.84l.26.59-.58-.27Z" transform="translate(-20 -59.9)"/><path class="cls-3" d="M465.37,293.38c-1.84-3-4.82-5.29-7.33-7.87-2.17,1.24-4.29,2.56-6.51,3.7-5.79,3-9.88,7-10.27,14.08a9.07,9.07,0,0,1-2.84,5.95,194.32,194.32,0,0,1-16.35,11.91c-7,4.61-14.53,8.56-21.48,13.3-5.81,4-11.67,6.64-18.93,6.26-4.9-.26-9.13,1.2-12.48,5.74-1.72,2.33-5.88,3.89-9,4-7.56.14-14.41,1.64-20.8,5.81-2.12,1.38-4.94,1.74-7.48,2.38-2.21.55-4.5.83-6.75,1.23.44.63.86,1.26,1.28,1.9a659.26,659.26,0,0,1-158.59,3.88c1.28-1.94,2.51-3.89,3.82-5.78-2.25-.4-4.54-.68-6.75-1.23-2.55-.63-5.37-1-7.48-2.38-6.39-4.17-13.24-5.67-20.8-5.81-3.09-.06-7.26-1.62-9-4-3.35-4.54-7.57-6-12.48-5.74-7.25.38-13.12-2.3-18.93-6.26-6.95-4.74-14.43-8.69-21.48-13.3a194.3,194.3,0,0,1-16.35-11.91,9.07,9.07,0,0,1-2.84-5.95c-.38-7.08-4.47-11.1-10.27-14.08-2.22-1.14-4.34-2.46-6.51-3.7-2.52,2.58-5.49,4.88-7.33,7.87-.81,1.31.2,4.37,1.27,6.08,1.88,3,5.11,4.94,4.8,9.42-.14,2.05,2.2,4.32,3.52,6.42C66,354.88,100,442.1,100.18,443.1c0,0,19.27,51.85,31.69,63.13l65.5,8.77c14.82,0,33.53-.6,51.07-1.48C266,514.4,284.68,515,299.5,515l65.5-8.77c12.42-11.28,31.69-63.13,31.69-63.13.14-1,34.18-88.22,59.09-127.81,1.32-2.1,3.66-4.37,3.52-6.42-.31-4.48,2.92-6.42,4.8-9.42C465.17,297.75,466.18,294.69,465.37,293.38ZM215.54,505.82a6.12,6.12,0,0,1-1.76-.64l2.88.16A9.78,9.78,0,0,1,215.54,505.82Zm103.55-89.54H319l.13-.74c.33-.3.65-.61,1-.93Z" transform="translate(-20 -59.9)"/></svg>