<?xml version="1.0" encoding="utf-8"?>
<!-- Generator: Adobe Illustrator 16.0.0, SVG Export Plug-In . SVG Version: 6.00 Build 0)  -->
<!DOCTYPE svg PUBLIC "-//W3C//DTD SVG 1.1//EN" "http://www.w3.org/Graphics/SVG/1.1/DTD/svg11.dtd">
<svg version="1.1" id="Layer_1" xmlns="http://www.w3.org/2000/svg" xmlns:xlink="http://www.w3.org/1999/xlink" x="0px" y="0px"
	 width="612px" height="537px" viewBox="0 0 612 537" style="enable-background:new 0 0 612 537;" xml:space="preserve">
<path style="fill:#FFFFFF;" d="M71.3,277.7c-1.9,3.4-2.2,7.6-1.4,12.6c9.1,23.9,33.6,61.6,48.5,100.3c14.8,38.2,18.8,57.5,32.1,75.8
	s59.7,30.3,59.7,30.3l59.2,11.9V309C269.5,309,77.4,266.9,71.3,277.7z"/>
<polygon style="fill:#FFFFFF;" points="310.5,35.1 305.1,40.5 299.3,44.3 242.7,84 278.2,108.5 328.5,109.7 310,72.4 310,54 "/>
<path style="fill:#FFFFFF;" d="M133,147L133,147c-0.4,0.4-0.7,0.7-1,1l0,0c-0.8,0-1.5,0.2-2,1l0,0c-0.3,0.3-0.7,0.6-1,1
	c-2.6,0.3-3.9,2.4-5.4,4.1c-6,6.8-12.2,13.3-19.2,19.2c-10.4,8.8-19,19.4-27.5,29.8c-3.6,4.3-7.4,8.7-9.8,13.9c-4,0.6-6.4,3.9-9.5,6
	c-1.8,1.3-1.6,2.9-0.4,4.7c2,2.9,3.4,6.3,2.7,9.8c-0.8,3.8,0.3,6.7,2.8,9.4c0.4,0.3,0.9,0.7,1.3,1l0,0c0,0.9,0,1.7,1,2l0,0
	c0,0.9,0.1,1.7,1,2l0,0c0,0.9,0.2,1.6,1,2l0,0c0.3,0.4,0.7,0.8,1,1.1c1.7,2.6,3.4,5.2,5,7.8c0,2.7,0,5.4,0,8.1
	c-2.4,3.8-2,7.8-0.5,11.8c0.5,1.4,0.4,2.9,0.6,4.4c0.8,7.4,4.2,13.4,10.4,17.1c4.8,2.9,7.8,5.8,6.6,11.6c-0.2,0.8,0,1.7,0,2.5
	c-0.2,3.2,1.3,4.5,4.5,4.5c4.8,0,9.6,0,14.3-1.6c1.5-0.5,3.5-1.3,4.6,0.2c0.9,1.2-0.9,2.3-1.4,3.4c-1.8,3.3-0.7,6.3,1.5,8.7
	c2.3,2.5,5.1,1.2,7.2-0.4c2.9-2.2,4.1-0.6,5.2,1.8c3.5,7.4,7.5,8.6,14.6,4.7c2.6-1.4,4.9-3.7,8.1-4.2c0.6,2,0,3.5-0.4,5.2
	c-1.9,8.8,1.3,11.9,10.1,9.7c1.1-0.3,2.2-0.7,3.3-1.1c5.1-1.6,9.7-4.4,14.5-6.7c2.8-1.4,4.3-0.9,4.9,2.3c0.6,3.3,1.5,6.5,3.1,9.4
	c1.3,2.4,2.6,4.9,5.9,4.3c3.5-0.7,3.3-3.9,3.6-6.3c0.4-3.8-0.3-7.8,1.2-11.5c4.7,0.2,8.4,3.5,13,4.1c3.4,0.4,5.6,2,5.8,5.6
	c0.1,1.8,0.1,3.6,0.2,5.5c0.6,12.3,2.1,13.6,14,11.6c-1.9,1.6-1.9,3.3-1.3,5.7c2.8,12.1,6.3,24,10,35.8c3.1,9.8,5.3,19.8,9.3,29.3
	l0,0c0.3,0.7,0.7,1.3,1,2l0,0c0.3,1.7-0.8,3.9,1.9,4.5c1.3,10,2.9,20,3.9,30c0.5,5.4,3.5,10.5,2,16.1c-2.2,3.3-4.6,2.7-6.7,0.2
	c-2.5-3-4.7-6.2-7-9.4c-0.5-2.2-1.8-4.1-2.2-6.5c-2.3-15.6-3.3-31.4-6.9-46.8c-4-16.8-7.2-33.7-14.4-49.6c-0.4-0.8-0.1-2.2-1.4-2.3
	c-1.1-0.1-1.7,1-1.9,2c-1,5.3-3.2,10.5-1.7,16.2c2.6,10.3,5.1,20.6,6.1,31.2c1.1,11.3,6.7,21.6,8,32.8c1,8.4,3.8,16.1,7.3,23.7
	c0.8,1.8,2.2,3.4,1.8,5.5c-0.7,1.2-1.7,2.2-1.7,3.7c-5.1,6-7.8,5.8-12.2-0.9c-2.8-4.3-4.3-9.2-5.8-14c0.2-1.7,0-3.3-0.4-4.9
	c-6.3-25.2-12.4-50.5-20.2-75.4c-2.1-6.7-3.9-13.5-7.7-19.8c-2,1.9-2.3,3.6-1.9,5.8c2.8,18.5,7.7,36.6,12.3,54.7
	c2.4,9.6,5.8,19,7.3,28.9c-1,4.5,1.4,8.7,0.8,13.2c-0.3,2,0.1,4.4-1.8,5.3c-2.2,1-3.4-1.3-4.8-2.6c-0.9-0.9-1.7-1.9-2.6-3
	c0.8,7.9,6.9,16.3,13.4,17.4c7.5,1.3,14.5,4.1,21.8,6.1c1.9,0.6,3.7,1.3,5.7,1.8c7.5,1.9,14.6,6.5,22.2,6.2
	c19-0.7,37.2,4.1,55.7,6.6c17.9,2.4,35.5,1.8,53.1-0.6c18.7-2.5,37.2-6.5,56.3-5.9c10,0.3,20.3-1.1,29.9-4.2
	c12.6-4.2,24.7-9.9,37-15.1c6.3-2.6,7.4-10,1.5-13.6c-6.2-3.8-8.5-9-9.5-15.8c-0.7-5.3-3.3-10.3-9.2-10.9c-3.7-0.4-6.1-2.1-8.7-4
	c-3.5-2.5-6.9-5.1-10.3-7.8c-6.9-5.6-13.7-11.5-24.3-8.6c14.7-35.1,27.7-70.6,45.5-103.9c5.9-8,10.3-16.8,15.1-25.4
	c1.4-2.5,3.8-4.6,3.6-7.8c1.6-2.5,3.1-5.1,4.7-7.6c1.6-0.6,1.8-1.6,0.8-2.9c1.5-0.9,0.8-1.8,0-2.7c-2.1-2.4-4.1-4.9-6.2-7.3
	c-2-3.6-0.7-6.7,1.3-9.7c1.5-2.4,2.9-4.8,4.1-7.4c1.6-3.3,0.4-5-2.8-5.9c-4.5-1.3-8.9-2.6-13.4-3.9c-2.3-0.7-4.9-1.5-5-4.1
	c-0.2-4.2-2.5-7.1-4.7-10.2c-0.6-1.5-1.5-2.8-3.2-3c1.6-6.3-3.2-9.2-6.7-12.8c-2.4-2.5-1.7-5.6-1.2-8.5c0.6-3.6,1.8-7,2.8-10.6
	c1-1.7,2.4-3.3,0.2-6.4c-0.2,2.3-0.3,3.4-0.3,4.5c-0.3,0-0.7,0-1,0c0-1.4,0.5-2.9-0.8-4.1c0-0.4-0.1-0.7-0.1-1.1
	c-0.2-1.7,0.6-3.5-0.8-5l-0.1-0.2c-0.2-2.9,0.4-6.2-3-7.9c-0.4,0-0.7,0-1.1,0l0,0c-0.5-4.2-5-5.1-7-8c-0.5-7.2-6.1-10.4-11.3-13.7
	c-8-5.1-17.8-6.7-25.5-12.4c-1.3-1.4-2.6-2.9-4.1-4.3c-8.6-8.4-17.6-16.7-23.7-27.2c-4.3-7.4-11-9.3-18.5-10.6c-1-0.6-2-1.3-3-1.9
	c-1.1-2.3-3.3-3.2-5.4-4.2c-5.5-2.7-11.4-4.3-16.9-7.1c-9.6-5-17.8-12.8-28.9-14.9c-1.7-0.3-2.6-1.9-2.8-3.8
	c-1.3-4.3-1.7-8.7-0.1-13.1c0.5-9.6,0.5-19.2,6.8-27.3c0.4-0.5,0.6-1.2,0.9-1.8c0.4-0.8,0.6-1.7-0.2-2.2s-1.6,0.1-2,0.9
	c-1.2,2.1-3.1,3.9-3.5,6.5c-0.3,0.3-0.6,0.7-0.9,1l0,0c-1.4,0-1.9,1.1-2.5,2.1c-3,4.9-3.4,10.4-3.3,15.8c0.2,7.9-1.5,15.3-4.2,22.7
	c-0.7,2-2,2.3-3.8,2.5c-5.2,0.7-10.5,1.2-15.6,2.3c-6.2,1.3-8.3,5.6-5.9,11.5c0.7,1.9,1.1,4.7,3.7,4.8c2.6,0.2,4.6-2.2,5.1-4.1
	c1.9-7,6.6-8.3,12.9-7.6c1.5,0.2,3,0,4.5,0c9.8,0.2,14.9,5.5,15.3,15.4c0.1,3.4-0.8,4.8-4.4,4.6c-7-0.3-14-0.1-21,0
	c-1.6,0-3.4-0.5-4.7,1c-0.7,0-1.3,0-2,0c-11.4-0.9-19.9-9.3-30.7-12c-1.1-0.3-1.7-1.9-0.8-2.3c3.9-1.6,1.7-4.3,1.5-6.7
	c-0.1-1.6-0.3-3,1.7-4.2c6.7-4.2,13.7-7.8,19.5-13.7c5.9-5.8,13.5-9.9,19.2-16.2c1.1-1.2,3.2-2.1,1.8-4.6
	c-11.6,9.3-23.5,18-37.4,23.5c-4.1,0.7-7.9,2.2-11.1,5.1c-3,0-5.7,1.3-7.8,2.9c-8.4,6.4-17.6,10.9-27.4,14.5
	c-4.9,1.8-9.9,3.5-14.5,5.8c-7.8,3.9-12.8,10.9-18.2,17.3c-4.3,5.1-8.9,10.4-14.7,13.2c-7.5,3.5-15,7-22.4,10.7
	c-4.3,2.2-9.1,4-11.8,8.6C133.6,146.2,133.3,146.6,133,147z"/>
<path style="fill:#FFFFFF;" d="M156,405c-0.1-0.4-0.3-0.9-0.4-1.3c-0.1,0.1-0.4,0.2-0.4,0.3C155.5,404.3,155.7,404.7,156,405
	c0.1,0.8,0.2,1.5,0.4,2.2c0.1-0.1,0.3-0.1,0.4-0.3C157.1,406.1,156.7,405.4,156,405z"/>
<path style="fill:#FFFFFF;" d="M158.3,363.3c-0.6,13.8,30.6,108,37.7,113.3C184.1,438.5,177.3,399.2,158.3,363.3z"/>
<path style="fill:#FFFFFF;" d="M160,416.7c2.4,10.3,6.3,20.3,7.5,30.7c1,8.3,3.7,15.7,7.3,23c0.7,1.4,1,3.9,3,3.2
	c2.1-0.7,1.2-3.2,0.9-4.9C175.2,450.5,166,434.2,160,416.7z"/>
<path style="fill:#FFFFFF;" d="M154.9,440.7c1.1,4.6-1.3,9.5,1.6,13.9c4.7,7.2,6.8,9.6,9.3,10.6
	C161.3,457.3,159.4,448.5,154.9,440.7z"/>
<path style="fill:#FFFFFF;" d="M153.4,398.4c0.1-0.3,0.1-0.5,0.2-0.7c-0.1,0-0.2,0.1-0.4,0.1C153.3,398,153.3,398.1,153.4,398.4z"/>
<path style="fill:#FFFFFF;" d="M154.4,401.3c0.4,0,0.5-0.2,0.2-0.5c0,0-0.2,0.1-0.4,0.1C154.3,401,154.3,401.1,154.4,401.3z"/>
<path style="fill:#FFFFFF;" d="M157.8,409.9c-0.1-0.1-0.2-0.2-0.3-0.3c-0.1,0.1-0.2,0.2-0.3,0.3c0.1,0.1,0.3,0.3,0.4,0.4
	C157.7,410.2,157.7,410,157.8,409.9z"/>
<path style="fill:#F7E3E5;" d="M261.9,67.9c13.9-5.5,25.8-14.2,37.4-23.5c1.4,2.5-0.7,3.4-1.8,4.6c-5.7,6.3-13.4,10.4-19.2,16.2
	c-5.9,5.9-12.8,9.5-19.5,13.7c-2,1.2-1.8,2.6-1.7,4.2c0.2,2.4,2.4,5.1-1.5,6.7c-0.9,0.4-0.3,2,0.8,2.3c10.8,2.7,19.3,11.1,30.7,12
	c-0.3,2.4,1.2,2.7,3.1,3.3c1.7,0.6,4.5-0.3,5,2.7c-0.5,2.7,1.4,3.9,3.1,5.2c2.2,1.7,4.5,3.3,6.8,4.9c-0.1,2.6-1.6,2.1-3.5,1.9
	c-1.9-0.2-3.9-2.1-6.7,0.2c7.9,2.4,15.2,4.6,22.5,6.7c17.3,5,35,8.2,52.5,12.1c6,1.4,7.6,3.4,8.1,9.8c-15.4-0.4-30.7-2.2-46.1-0.1
	c-0.4-0.5-0.7-0.3-0.9,0.2c-0.1,2,1.6,2.4,2.9,2.8c10.9,3.4,21.9,6.1,33.1,8.2c0.5,0.8,1.2,0.9,2.1,0.8h0.1
	c-5.6,1.7-11.7,1.1-17.1,3.7c1.1,0.5,1.3,0.7,0.9,1.5c-1.6-0.2-3.3-0.2-4.9-0.5c-13-2.7-25.8-5.7-38.9-7.7c-3-0.5-7.4-2.4-8.3,0.4
	c-0.7,2.2,4.5,2.9,7.3,3.6c16.1,4.2,32.6,5.5,48.9,8.3c1.4,5.3,7.2,3,10,5.8c-13.3,0.4-26.6,0.8-39.8,1.2c0.3-0.9,2.1-2-0.8-2.3
	c-5.2-0.5-10.5-1.3-15.6-2.6c-20-4.9-39.4-11.4-58.1-20.1c-11.5-5.3-23.2-10.4-31.7-20.3c-1.2-3-2.7-6-3.6-9.1
	c-1.4-4.7,0.7-6.9,5.2-5.4c3.9,1.3,4.7-0.3,4.8-3.5c1.5,0,3,0.1,4.3,0.9c6.5,4,13,7.9,19.5,11.8c7.4,4.3,14.6,8.8,23.2,10.7
	c15.3,3.3,30.6,7.2,45.9,10.4c2.6,0.5,5.5,2.5,9.1-0.1c-8.9-3.7-17.6-6-25.9-9.5c-10.5-4.4-20.4-8.9-27.1-18.9
	c-2.3-3.4-5.8-6.2-10.5-7.8c-8.8-2.9-17.6-5.9-25.5-10.9c-5.2-3.3-9.9-3-14.9,0.7c-1.4,1-2.5,2.2-2.4,4.1c-2.4,2.8-6.1,4.4-8,7.8
	c-3-2.6-5.5-0.1-8.3,0.6c-4.4,1.3-7.1,5.2-11.2,7c0.3-1.6,0.6-3.2,1.5-4.7c2.4-4.1,2.4-4.9,1.2-10.1c-5,5.4-8.7,11.7-12.4,17.9
	c-1.3,2.1-2.3,4.6-1.8,7.1c1.7,7.9,0.2,16.2,2.8,24c-1,0.6-1.4,1.9-2.8,1.9c-4.2,0.1-3.5,1.9-1.5,4.2c1,1.1,1.7,2.4,2.8,3.5
	c9.7,9.7,22.1,15.4,33.7,22.4c1.6,0.9,3.3,1.8,5.3,1.3c-0.1-1.4-1.1-1.6-1.8-1.9c-8.7-4-16.3-9.5-23.5-15.8
	c-1.2-1.1-2.2-2.6-4.1-2.6c-2.8-0.1-3.5-2.2-4.1-4.3c1.2-1.7-0.3-2.6-1.2-3.7l0.1,0.1c-0.9-3.7-2.1-7.3-2.5-11.1
	c-0.6-5.8,0.6-11.2,5.3-16.1c1.4,7.4,3.1,13.9,9.2,18.1l0,0c0.1,1.9,1.3,2.8,3,3l0,0c0.3,0.3,0.7,0.7,1,1c3.3,1.6,5.1,4.9,8.2,6.9
	c10.2,6.5,20,13.5,30.2,19.9c5.5,3.4,11.2,6.8,18.1,7.8c-0.1-2.3-3-1.9-3-4.3c4.4-1,9.2,0.5,13.6-0.9c2.7-0.8,5.1-0.2,7.7,0.9
	c9.5,4.3,18,10.4,27.9,14c5.9,2.1,11.3,5.4,17.8,5.8c-8-7-16.3-13.5-25.8-18.3c-8.4-4.3-16.2-9.9-24.9-13.4
	c-9.1-3.7-19.1-5.3-28.5-8.4c-6.9-2.3-11.7-7.5-16.5-13c2.2-1.1,3.1,0.1,4.3,0.6c6.5,2.8,12.5,7.1,19.6,8.2
	c23.2,3.5,44.9,12.4,67.4,18.2c0,1.4,0.9,2.1,2.1,2.5c6.1,2.1,12,4.8,18.5,5.5c10.9,1.2,21.2,5.8,32.3,6.3c0.4,0,0.7,1,1.1,1.5
	c-0.8,0.2-1.4,0.6-2,1.3c-5.1,6.5-7.1,6.6-13.9,1.7c-1.3-0.9-2.7-3.3-4.5-1.6c-1.5,1.5-0.1,3.4,0.6,5c2.6,5.6,7.2,9.8,10.9,14.6
	c-2,1.9-4.6,1.4-6.6,0.9c-7.5-2.1-15.3-2.7-22.8-4.3c-20.6-4.4-41.7-6.2-62.2-11.4c-1.5-0.4-3.3-0.7-4.6,1c-8-3-16-6-24-9
	c2.5,3,5.9,4.3,9.2,5.7c33.4,14.2,67.9,25.1,103.4,32.6c1.7,0.4,5-0.4,5,2c0,2.7-3.3,2.8-5.4,3.4c-1.1,0.4-2.3,0.2-3.5,0.2
	c-10.6,0.7-20.8-1.3-31.1-3.7c-15.9-3.8-31.1-9.5-46.6-14.6c-1.4-0.9-2.7-2-4.7-1.4c1.3,1.3,2.8,1.6,4.2,2
	c24.1,13.9,50.8,19.9,77.6,25.5c11.8,2.4,23.8,4.1,35.7,6.1c0.3,2.3,2.4,2.3,3.9,3.1c4.1,2.1,9,2.8,12,6.8c-0.7,0-1.3,0-2,0
	c-0.9-1-2-0.8-3.1-0.7c-6.1-0.4-12.2-0.8-18.3-1.2c0,0.3-0.1,0.6-0.1,0.9c11.8,2.7,23.7,5.5,35.5,8.2c-1.7,1.7-3.7,1-5.5,0.7
	c-5.5-1.1-10.6-0.1-15.5,2.4c-1.6-0.2-3.3-0.2-4.9-0.5c-14.2-2.2-28.4-4.5-42.6-6.6c-15.5-2.3-31.2-3.5-46.8-4.7
	c-1.4-0.1-3-0.6-4.1,1.2c2.7,1.3,5.4,2.6,8.4,2.7c0.4,0.3,0.7,0.5,1.1,0.8c0.6,0.1,1.2,0.1,1.9,0.2c0,1.7,0.7,2.4,2.5,3
	c4.2,1.4,8.3,3.2,11.7,6.3c2.9,2.7,2.7,4.4-1,6c-10.2,4.4-20.9,7.2-31.4,10.5c-4.1,1.3-8,4-12.8,3.1c-0.1-2,0.3-4-0.5-5.9
	c-1-2.3-2.4-3.6-5-2.7c-9.7,3.3-19.3,6.9-29.1,10.2c-13.5,4.5-27.1,7.5-41.6,6.3c0.5-0.4,0.7-0.7,1-0.7c15.6-0.6,29.3-7.1,43.2-13.1
	c2.9-1.3,4.7-2.9,2.7-6.8c-7.5-15.1-14.8-30.3-25.6-43.3c-7-8.4-13.3-17.3-20.9-25.2c-2.6-2.7-4.7-5.8-7-8.7c0.3-0.3,0.6-0.5,1-0.8
	c6.6,5.2,13.3,10.3,19.9,15.5c1.4,1.1,2.8,3.1,4.7,1.6c2-1.6,3.6-0.3,5,0.4c4.9,2.5,9.5,5.3,14.4,7.9c3.7,1.9,7.5,3.6,11.2,5.3
	c-7.7-7.8-17.8-11.9-25.5-19.5c20.4,11.5,40.7,22.9,63.5,28.9c-5.4-3.1-11-5.6-16.6-8.4c-12.5-6.2-25.1-12.1-37.1-19.4
	c-17.1-10.3-34-20.7-48.8-34.1c-7.8-7.1-15.7-14.4-17.6-25.7c-0.4-2.5-2.1-4.1-4-4.6c-3.9-0.9-7.2-3.2-10.9-4.4
	c-1.8-0.6-3.3-0.5-4.6,0.7c-1.5,1.4-0.1,2.8,0.4,4.1c3.9,8.8,7.2,17.8,11.9,26.2c6.6,12,13,24.2,23,33.8c5.3,5.1,9.8,10.7,13.8,16.8
	c8,12.2,14,25.5,21.6,37.9c0.4,0.7,0.8,1.6,0,2.3c-0.8,0.7-1.6,0-2.1-0.6c-8.7-9.2-19-17-24.6-29c-4.4-9.4-9.1-18.7-15.1-27.2
	c-2.1-3-3-6.6-5.8-9.2c-1.5-1.3-2.5-1.5-3.5,0.3c-0.6,1.1,0.1,3.1-1.9,3c-1.8-0.1-1.8-2.1-2.5-3.4c-5.3-10.1-10.3-20.4-17.6-29.3
	c-0.9-1.1-1.4-2.6-2.9-2c-8.4,3-19.3,2.1-22.5,13.7c-0.3,1.2-1,2.3-2.4,1.8c-1.3-0.5-2.4-1.5-2.3-3c0.1-0.9,0.8-1.8,1.2-2.6
	c0.9-1.7,0.7-3.2-0.6-4.6c-1.4-1.5-2.7-1.2-4.5-0.6c-5.3,2-8.5,6.7-13.1,9.6c-1.3,0.8-2.8,2.2-1.8,4.2c1,1.8,2.8,1.7,4.4,1.3
	c3.7-0.8,7.4-1.8,11.1-2.6c3.4-0.8,5.6,0.1,5.1,4.2c-1.4,1.4-2.7,2.9-4.1,4.3c-3.1,3.2-6.4,6.3-6.1,11.4c-4.4-1.3-8.8-2.8-12.1-6.2
	c0.4-1.6,0.7-3.2,1.1-4.8c0.5-1.9-0.3-3.3-1.8-4.3c-1.9-1.2-2.7,0.7-3.5,1.7c-5.2,5.9-7.9,12.9-8.8,20.7c-3.1,0.7-2,4-3.5,5.7
	c-3.3,3.8-2.3,7.7-0.4,12c3.7,8.3,8.9,15.6,14.4,22.5c4.5,5.7,9.7,11,16.1,15.3c5.3,3.5,11,6.6,15.4,11.5c1.7,1.9,2.4,3.3,0.4,5.3
	c1.9,4.4,5.9,6,9.9,7.6l0.1,0.1c3.6,4.3,8.4,7,13,9.8c1.8,5,3,11,8.7,12.5c7.4,2,14.2,5.4,21.8,6.7c8,1.4,16.1,2,24,3.6
	c2.7,0.6,5.9,1.9,10.3,0.2c-11.6-2.9-21-7.8-30.8-11.9l0,0c4.7-0.6,8.9,1.3,13.1,2.6c17.2,5.3,34.7,6.4,52.6,4.4
	c14.3-1.6,28.4-4.1,42.8-5.3c3.3-0.3,7-0.1,10.3-1.4c1.6-0.6,3.4-1.1,3.8-2.8c0.5-2-1.4-2.8-2.8-3.6c-3.9-2-7.9-4-11.8-5.9
	c0.9-0.9,2.1-0.8,3.3-0.9c9.3-1.3,18.6-2.8,28-3.7c11.7-1.1,23.1-4,34.9-4.2c7.4,3.5,13.1,9,16.9,16.1c2.8,5.2,0.4,8.3-5.4,9
	c-6.1,0.7-12.2,0.6-18.3,1.1c-13,1.1-25.9,2.7-38.9,3.7c-13.6,1.1-27,2.2-39.7,7.7c-4.7,2-9.6,3.4-14.5,4.8
	c-7,2.1-14.1,3.9-21.2,5.9c-1.6-0.4-3-1.1-4.7-1.4c-10.5-1.5-20.9-3.4-31.4-4.9c-7.8-1.1-15-3.9-22.5-6.2c-1.1-0.3-3.3-2.4-3.2,1.1
	c-7.8-0.7-15.1-2.5-21.1-7.9c1.6-0.7,2.2-1.9,1.9-3.6c-0.1-0.8-0.6-1.2-1.4-1c-5.4,1.8-7.8-2.1-10.5-5.4c1.3,0,2.7,0,4,0
	c0.4,0.4,0.8,0.9,1.2,1.3c0.1-0.2,0.3-0.4,0.4-0.6c-0.5-0.2-1.1-0.5-1.6-0.7c-1-1.1-1.8-2.4-2.9-3.4c-10.9-9.4-22.2-18.4-33.1-27.9
	c-14.4-12.5-29.3-24.4-44-36.5c-4.4-3.6-6.7-7.6-6.1-13.6c0.6-5.8,1.6-11.4,4.1-16.7c2.4-5.2,6.3-9.6,9.8-13.9
	c8.6-10.4,17.2-21,27.5-29.8c7-5.9,13.2-12.4,19.2-19.2c1.5-1.7,2.8-3.9,5.4-4.1c0.3-0.3,0.7-0.6,1-1l0,0c0.8,0,1.6-0.1,2-1l0,0
	c0.3-0.3,0.6-0.7,1-1l0,0c0.3-0.4,0.6-0.8,1-1.2c2.7-4.6,7.4-6.4,11.8-8.6c7.4-3.7,14.9-7.2,22.4-10.7c5.8-2.8,10.4-8.1,14.7-13.2
	c5.5-6.4,10.5-13.4,18.2-17.3c4.7-2.3,9.6-4,14.5-5.8c9.8-3.5,19-8.1,27.4-14.5c2.1-1.6,4.9-2.9,7.8-2.9c1.1,0,2.6,0.5,3.3,0
	C256.7,71.2,261.3,72.5,261.9,67.9z"/>
<path style="fill:#E794A1;" d="M419,270c-11.8-2.7-23.7-5.5-35.5-8.2c0-0.3,0.1-0.6,0.1-0.9c6.1,0.4,12.2,0.8,18.3,1.2
	c0.9,0.9,1.9,0.9,3.1,0.7c0.7,0,1.3,0,2,0.1c10.9,0.2,21.9,1.6,32.7,0.1c10.9-1.5,19.3-7.7,25.7-16.2c2.4-3.2,1.6-7.6-1.6-9.9
	c-3.2-2.2-5.5,1.6-8,3.2c-0.9,0.6-1.4,1.8-2,2.8c-5.2,8.4-12.9,11.9-22.5,12.3c-13.5,0.6-26.8-1.5-40.2-2.1
	c-11.9-2-23.9-3.7-35.7-6.1c-26.8-5.5-53.5-11.6-77.6-25.5c0.2-0.2,0.4-0.4,0.5-0.7c15.4,5.1,30.7,10.8,46.6,14.6
	c10.2,2.4,20.5,4.4,31.1,3.7c1.2-0.1,2.4,0.1,3.5-0.2c2.1-0.7,5.4-0.8,5.4-3.4c0-2.4-3.3-1.7-5-2c-35.5-7.5-70-18.4-103.4-32.6
	c-3.3-1.4-6.7-2.7-9.2-5.7c8,3,16,6,24,9c13.7,6.2,28,10.2,42.4,14.1c16.6,4.6,33.4,8.5,50.5,11c1.3,0.2,2.6,1.1,3.2-1
	c1.1-3.5,2.8-6.9,0-10.3c-3.7-4.9-8.3-9-10.9-14.6c-0.7-1.6-2.2-3.6-0.6-5c1.8-1.8,3.2,0.6,4.5,1.6c6.8,4.9,8.8,4.8,13.9-1.7
	c0.6-0.7,1.2-1.1,2-1.3c1.8,0.3,3.7,0.3,5.3,1c13.3,4.9,26.7,9.8,39.9,15c13,5,28.3-0.8,34.9-13.5c1.2-0.2,2-0.9,2-2.2v0.1
	c2.6-0.8,2.8-3.1,2.9-5.2c0.1-2.3-0.3-4.7,0-6.9c0.3-2.9,1.4,0.2,2.1-0.1l0.1,0.2c0.1,1.7-0.7,3.5,0.8,5c0,0.4,0.1,0.7,0.1,1.1
	c0,1.4-0.5,2.9,0.8,4.1c0.3,0,0.7,0,1,0c0,0.6,0.1,1.3,0.1,1.9c-0.9,3.5-2.1,7-2.8,10.6c-0.5,2.9-1.2,6,1.2,8.5
	c3.5,3.6,8.3,6.5,6.7,12.8c0.6,1.6,1.5,2.8,3.2,3c2.1,3.1,4.5,6.1,4.7,10.2c0.1,2.7,2.7,3.5,5,4.1c4.5,1.3,8.9,2.6,13.4,3.9
	c3.2,0.9,4.4,2.6,2.8,5.9c-1.2,2.6-2.5,5-4.1,7.4c-2,3-3.3,6.2-1.3,9.7c-3.6,2-7.1,3.9-10.7,5.9c-0.4,0.3-0.9,0.7-1.3,1
	c-4,3.1-4.9,7.4-5.1,12.1c-2.1-0.8-4.1-1.6-6.2-2.4c1.4,2.3,3.4,4,4.4,6.4c-5,4.1-10.5,7.7-16.1,11c-0.7,0.3-1.3,0.7-2,1h0.1
	c-1.7-0.3-3.4-0.6-5.2-0.9c-0.2,1.9,1.9,1.7,2.3,3c-6.5,4.3-13.3,8.3-19.5,13c-3.5,2.7-7.3,3.9-11.4,5.2c-3.3,1-6.6-1.3-9.7,0.6
	l-0.2-0.2l-0.3,0.1c-3.1-0.1-6,1.3-7.1,3.6c-3.1,6.2-8.4,5.5-13.8,5.5c-2.7,0-5.5,0.8-8.2,1.2c-2.3,0.4-4.5,1.1-6.2,2.8
	c-4,3.3-8.4,4.9-13.7,4.2c-1.1-0.1-2.3,1.1-3.4,1.6c-4.6-4.8-7.4-0.4-10.5,2.1c-1.2-1.2-2.4,0.8-3.6,0.2c-4.1,0.4-8.4-0.6-12.5,0.6
	c-6.3-1.6-13.1,0.3-19.3-2.6c7.9-2.3,16.2-0.5,24.2-1.9c10.2-1.8,20.7-1.7,30.7-5.8c10.4-4.3,21-8.2,32-10.8
	c6.3-1.5,12.6-2.9,18.8-4.7c2.8-0.8,5.6-2.2,5.5-6.1c-0.1-3.6-2.6-4.9-5.4-5.7c-5.3-1.5-10.6-2.7-15.9-4.1c-5-1.3-10.1-2.7-15.1-4.1
	c9.8-1.9,19.6-2.5,29.2-4c10.3-1.6,20.7-2.5,30.7-5.8c1.2-0.4,2.9-0.6,2.9-2.2c0-1.5-1.3-2.3-2.5-2.8c-1.5-0.7-3.1-1.3-4.7-1.7
	c-9.6-2.1-19.5-1.9-29.3-2c-9.7-0.1-19.5,1.5-29,3.7c-9.6,2.2-19.3,4.1-29,6.1c-11.8,0.2-23.2,3.1-34.9,4.2
	c-9.4,0.9-18.7,2.5-28,3.7c-1.1,0.2-2.3,0-3.3,0.9c-1.3,0.1-2.6,0.2-3.9,0.3c-0.3,0-0.7,0-1,0c-9.2,1-18.5,1.9-27.7,3
	c-25,3-50,4.3-75.2,3.7c-11.7-0.2-23.2-1.5-34.1-6.1c-4.6-2.9-9.4-5.5-13-9.8c5.5,2.3,11,4.6,16.8,6c29.3,7.4,59.1,8.2,89,5.6
	c10.1,0,20.1-1.7,30.2-2.6c16.3-1.5,32.6-3.9,48.7-6.9c18.6-3.5,37-7.4,55.5-11.3c6.7-1.4,13.3-3.3,21-5.2
	c-15.5-2.6-29.7-4.9-43.9-7.4c-14.8-2.6-29.6-5.4-44.5-8.1c-0.6-0.1-1.2-0.1-1.9-0.2c-0.4-0.3-0.7-0.5-1.1-0.8
	c-3.1-0.1-5.7-1.4-8.4-2.7c1-1.8,2.6-1.3,4.1-1.2c15.7,1.2,31.3,2.4,46.8,4.7c14.2,2.1,28.4,4.4,42.6,6.6c1.6,0.3,3.3,0.3,4.9,0.5
	c0.4,0.3,0.8,0.7,1.2,0.8c12.6,2.1,25.3,3.6,37.7,6.3c14.5,3.1,27.9,0.9,41.1-5c4.3-1.9,5.9-5.5,7.4-9.4c0.7-1.7-0.2-2.6-1.9-2.5
	c-1.5,0-3,0.1-4.4,0.4C459.3,267.6,439.4,271.3,419,270z"/>
<path style="fill:#7A7A7A;" d="M378.8,342c1.7-1.7,3.9-2.4,6.2-2.8c4.1,3,9.1,4.3,12.9,7.9c2.3,2.2,4.3,6.8,7.5,5.4
	c3.1-1.3,2.1-6.1,2.6-9.5c0.8-5.2,0.2-11.1,6.1-14.2l0.3-0.1l0.2,0.2c5.9-0.1,10.6,3.3,15.8,5.4c3,1.2,6.7,3.5,9.1,0.2
	c2.3-3-0.9-5.8-2.6-8.3c-0.2-0.2-0.1-0.6-0.2-1c7.6,1.4,14.9,3.4,22.5,4.1c5,0.5,7.2-1.1,7.9-5.8c0.8-5.6-0.3-9.8-6.3-11.6
	c-1-0.3-1.8-1.3-2.7-2c0.1-0.6,0.1-1.2,0.2-1.9h-0.1c0.5,0,1-0.1,1.6-0.1c7.6-0.3,15.3,2,22.9-0.6c0.3,0.3,0.5,0.5,0.8,0.8
	c-2.4,4.4-5.1,8.6-7.2,13.1c-17.7,39-36.4,77.6-51.8,117.6c-3.2,8.2-8.1,13.9-16.4,17.6c-7.9,3.4-15,8.5-22.4,13
	c-8.9,5.5-16.7,12.4-26.7,16.4c-22.8,9.2-45.3,19.1-70.3,21c-8.1,0.6-16.1,3.1-24.2,1.1c-6-1.4-11.9-3-17.9-3.9
	c-1.3-0.2-2.3-0.5-2.5-2c-0.5-4-3-6.9-5.1-10c2.2-0.1,2.2-1.2,1.7-3c-0.6-2.3-1.4-4.8,0.5-7c2.3,3.1,4.5,6.4,7,9.4
	c2.1,2.5,4.6,3.1,6.7-0.2c1.6-1.1,2-0.3,2.7,1.2c0.7,1.6,2.1,3.3,4.2,2.1c1.7-1,3.7-2.3,3.1-5c-0.2-0.9-0.3-1.9-0.5-2.8
	c3.7,0.7,4.7,4.4,7,6.6c5.3,5.1,8.2,4.8,12-1.4c0.8,0,1.5,0,2.3-0.1c5.6,0,10.9-0.9,14.4-6c1.8,1.7,2,4,2.2,6.3
	c0.1,1.2,0.8,1.7,1.9,2c0.9,0.2,1.3-0.6,1.3-1.1c0.4-4.3,3.2-4.7,6.6-4.1c7.7,5.6,8.4,5.5,12.9-1c0.6-0.3,1.3-0.9,1.8-0.7
	c5.7,1.7,7.8-1.8,9.2-6.3c3.5-11.4,3.6-23.5,6.5-35c1.2,0.5,0.2,3.1,2.3,2.9c0.4,0.9,0.9,1.8,1.2,2.7c2.3,6.3,3.2,6.5,8,2.3
	c0.3,6.3-3.2,11.9-3.9,19.3c0.9-1.6,1.2-2,1.4-2.4c8.2-22.7,15.6-45.7,22.7-68.8c3.1-9.8,4.6-19.6,3.1-29.8
	c-0.7-2.9,1.1-5.6,0.7-8.5c1-2.3,0.2-4.6,0.1-6.8c1.5-2.3,1.3-4.6-0.1-6.9C377.7,347.3,377.5,344.5,378.8,342z M392,454
	c0.4-0.9,0.8-1.8,1.3-2.7c15.3-35.7,30.5-71.4,45.7-107.1c0.5-1.1,1.8-2.7,0.3-3.6c-1.9-1.1-2.5,1.1-3.2,2.3
	c-4.8,8.5-8.8,17.5-12.7,26.5c-11.4,26.7-23.8,53-30.9,81.3C392.4,451.8,392.2,452.9,392,454c0,0.1-0.1,0.2-0.2,0.3
	C391.9,454.2,391.9,454.1,392,454z M450,348c-1.5,0.8-1.8,2.3-2.1,3.9c-0.7,1.3-1.5,2.6-2.2,3.9c-13.8,25.5-23,52.9-33.5,79.8
	c-0.7,1.9-2.4,3.7-1.7,7.1c1.1-2.4,1.9-3.8,2.5-5.3c6.2-14.7,12.5-29.3,18.7-44c5.7-13.6,11.1-27.3,16.7-41
	C449.3,351,450.1,349.7,450,348c0.3-0.3,0.5-0.7,0.8-1c-0.2-0.1-0.4-0.2-0.5-0.4C450.2,347.1,450.1,347.5,450,348z M403.3,362.9
	c-8.2,13.7-30.6,81.4-27.7,96.7C385.5,427.2,396.7,395.7,403.3,362.9z M406.6,450.6c-0.1,0-0.3,0-0.3,0.1c-0.1,0.1-0.1,0.3-0.1,0.4
	c0.2,0,0.4-0.1,0.6-0.1C406.7,450.9,406.7,450.7,406.6,450.6z M451.6,343.8c-0.1,0-0.2,0-0.2,0.1c-0.1,0.1-0.1,0.3-0.1,0.4
	c0.2,0.4,0.3,0.3,0.4-0.1C451.7,344.1,451.7,344,451.6,343.8z M409.8,444c-0.1-0.3-0.2-0.6-0.3-0.8c-0.1,0.1-0.3,0.2-0.3,0.4
	c0,0.3,0.1,0.6,0.1,0.9C409.5,444.3,409.7,444.2,409.8,444z M407.9,448.3c-0.1-0.3-0.2-0.5-0.3-0.8c-0.1,0.1-0.4,0.2-0.4,0.3
	c0.1,0.3,0.2,0.6,0.3,0.8C407.6,448.5,407.8,448.4,407.9,448.3z"/>
<path style="fill:#272424;" d="M238.8,492c2.1,3.1,4.6,6.1,5.1,10c0.2,1.5,1.2,1.8,2.5,2c6.1,0.9,12,2.5,17.9,3.9
	c8.1,1.9,16.2-0.5,24.2-1.1c25-1.9,47.5-11.8,70.3-21c9.9-4,17.8-10.9,26.7-16.4c7.4-4.5,14.5-9.6,22.4-13
	c8.3-3.6,13.2-9.4,16.4-17.6c15.5-40,34.1-78.6,51.8-117.6c2.1-4.5,4.8-8.7,7.2-13.1c0.4-0.3,0.8-0.5,1.2-0.8
	c0.3,0.3,0.6,0.5,0.8,0.8c-2.3,6.4-6.9,11.9-8.3,18.7c-17.8,33.3-30.8,68.8-45.5,103.9c10.6-2.9,17.4,3,24.3,8.6
	c3.3,2.7,6.8,5.3,10.3,7.8c2.6,1.9,5.1,3.6,8.7,4c5.9,0.7,8.4,5.6,9.2,10.9c0.9,6.8,3.2,12,9.5,15.8c5.9,3.5,4.8,10.9-1.5,13.6
	c-12.3,5.2-24.4,10.9-37,15.1c-9.5,3.1-19.8,4.6-29.9,4.2c-19.1-0.6-37.6,3.3-56.3,5.9c-17.6,2.4-35.2,3.1-53.1,0.6
	c-18.5-2.5-36.7-7.3-55.7-6.6c-7.6,0.3-14.7-4.3-22.2-6.2c-1.9-0.5-3.8-1.2-5.7-1.8c0.4-3.7,3.4-6.9,1.9-10.9
	c-0.1-1.5,1-2.6,1.7-3.7C237.5,488.8,237.2,491.2,238.8,492z"/>
<path style="fill:#F5CFD6;" d="M295,110c-0.4-3-3.3-2.1-5-2.7c-1.8-0.7-3.4-0.9-3.1-3.3c0.7,0,1.3,0,2,0c5.6,1,11.2,2.3,16.9,2.9
	c15.1,1.8,30.3,2.9,44.8,8.1c1.3-3.3-1.5-5.1-2.4-7.3c-4.5-10.6-11.1-19.4-23-22.5c-6.3-1.6-11.4-5.9-18.2-7.5
	c4.3,0.1,5.8-1.2,4-5.1c-0.5-1.1-0.4-2.7,0.9-3.6c0.2,1.8,1.1,3.4,2.8,3.8c11.1,2.2,19.3,9.9,28.9,14.9c5.5,2.9,11.4,4.4,16.9,7.1
	c2.1,1,4.3,1.9,5.4,4.2c-6.9-1.6-13-5.8-20.4-6.3c16.6,11.8,32.6,24.2,47.7,37.8c-3.4-9-8.9-16.4-16.2-22.5
	c-2.8-2.3-5.4-4.8-8.1-7.1c7.5,1.2,14.2,3.2,18.5,10.6c6.1,10.5,15.1,18.7,23.7,27.2c1.4,1.4,2.7,2.9,4.1,4.3
	c-5.2-0.8-9.7-3.6-13.6-6.8c-6.3-4.9-13.8-2.3-20.5-4.1c-0.6-0.2-1.4,0-1.6,0.8c-0.2,0.8,0.2,1.3,0.8,1.6c5.4,2.7,10.6,6.2,16.9,6.4
	c9.4,0.3,15,6.1,19.8,13c-9.1-1-17.8-4.1-27.1-3.9c11.2,3.9,22.6,7.5,33.9,10.9c2.4,0.7,4.6,1.6,2.1,4.2c-1.3,1.4-3.5,2.5-5.9,1.3
	c-4-2.1-8-4-12-6c-9.5-4.7-19.2-8.9-30.1-9.5c-0.5-6.4-2.1-8.4-8.1-9.8c-17.5-4-35.2-7.2-52.5-12.1c-7.3-2.1-14.6-4.3-22.5-6.7
	c2.8-2.3,4.7-0.3,6.7-0.2c1.8,0.1,3.4,0.6,3.5-1.9c1.5-0.6,0.7-2.6,1.9-3.3c1,5.6,4.7,8.8,8.5,6.7c4.2-2.3,8.4-1.2,12.6-1.3
	c1,0,2.4,1.3,2.8-0.6c0.3-1.3-0.8-1.9-1.9-2.5c-5.6-3.4-11.5-5.6-18-6.2C305.6,111.9,300.3,111,295,110z M343.1,91.8
	c0.1-0.1,0.2-0.2,0.3-0.2c-0.1-0.1-0.2-0.2-0.3-0.3c-0.1,0.1-0.3,0.3-0.4,0.4C342.8,91.7,343,91.7,343.1,91.8z"/>
<path style="fill:#BDBCBC;" d="M154.9,325c6,5.5,13.3,7.2,21.1,7.9l0,0c1.4,1.9,3.3,2.2,5.5,2l0,0c0.8,0.9,1.8,1.1,3,1
	c1.5,0,2.6,0.4,3,2c1.6,1.3,3.4,2.3,5.5,2l0,0c0.3,1,1.1,1.2,2,1l0,0c-1.4,3.7-0.7,7.7-1.2,11.5c-0.3,2.5-0.1,5.7-3.6,6.3
	c-3.3,0.6-4.6-1.9-5.9-4.3c-1.6-3-2.5-6.2-3.1-9.4c-0.6-3.3-2.1-3.7-4.9-2.3c-4.8,2.3-9.3,5.2-14.5,6.7c-1.1,0.3-2.2,0.8-3.3,1.1
	c-8.7,2.1-12-0.9-10.1-9.7c0.3-1.6,1-3.2,0.4-5.2c-3.2,0.4-5.5,2.7-8.1,4.2c-7.2,3.9-11.2,2.7-14.6-4.7c-1.1-2.4-2.3-4-5.2-1.8
	c-2.2,1.6-4.9,2.9-7.2,0.4c-2.2-2.4-3.2-5.4-1.5-8.7c0.6-1.1,2.4-2.2,1.4-3.4c-1.1-1.5-3.1-0.7-4.6-0.2c-4.7,1.5-9.5,1.5-14.3,1.6
	c-3.1,0-4.7-1.3-4.5-4.5c0.1-0.8-0.1-1.7,0-2.5c1.1-5.8-1.8-8.8-6.6-11.6c-6.2-3.7-9.6-9.8-10.4-17.1c-0.2-1.5-0.1-3.1-0.6-4.4
	c-1.5-4.1-1.9-8,0.5-11.8c2.8,0.5,4,3.9,7,4.1c1,1.8,2.1,3.7,3.1,5.5c0.3,0.1,0.6,0.2,0.9,0.4L84,281c0.4,0.6,0.9,1.1,1.3,1.7
	c1.5,1.9,2.5,4.2,4.8,5.4L90,288c0.7,1.1,1.5,2.3,2.2,3.4c0.6,2.4,1.8,4.4,4.7,4.4c0.1,0.1,0.2,0.3,0.3,0.4c-0.2,1.5,0.7,1.8,2,1.8
	c3,2,6.2,3.4,9.7,4c2.3,2,4.9,3.8,7.8,3.9c5.8,0.3,10.5,3.3,14.7,6.3C138.7,317.6,146.8,321.3,154.9,325z"/>
<path style="fill:#110D0E;" d="M315.8,348.1c6.2,2.9,12.9,1,19.3,2.6c4.2,0.4,8.4,1.3,12.5-0.6c1.2,0.6,2.3-1.3,3.6-0.1
	c-2.1,3.3-3,6.8-3.1,10.7c0,5.6-2.6,7.9-8,7c-6.7-1.1-13.1-3.1-17.9-8.5c-2-2.2-4.3-4.2-6.7-5.9c-5.9-4.3-9.6-3.1-12.6,3.8
	c-2.3,3.9-4,8.3-7.9,11c-6.4,1.8-9.1,0.2-13.3-7.9c-1,0.7-1.3,1.8-1.6,2.8c-4.2,5-8.8,9.6-15.2,11.8c-8.5,0.2-12.9-5.5-16.7-11.8
	c-1.7-2.8-3.1-4.1-6-1.8c-4.7,2.2-9.4,4.4-14.1,6.6c-11.9,2-13.4,0.7-14-11.6c-0.1-1.8-0.2-3.6-0.2-5.5c-0.2-4.3,3-4,5.5-3.4
	c4.1,1.1,8.7,2.1,12,4.5c7.7,5.7,15.9,4.1,24,2.6c7.9-1.5,15.4-5,23.8-4.5c2.1,0.1,4.2-0.8,6.1-1.9
	C295.3,347,305.6,346.4,315.8,348.1z"/>
<path style="fill:#F7E3E5;" d="M312,69c-1.3,1-1.4,2.5-0.9,3.6c1.8,3.9,0.3,5.3-4,5.1c6.7,1.7,11.9,5.9,18.2,7.5
	c11.9,3.1,18.4,11.9,23,22.5c1,2.3,3.7,4.1,2.4,7.3c-14.5-5.2-29.7-6.3-44.8-8.1c-5.7-0.7-11.3-1.9-16.9-2.9c1.3-1.5,3.1-1,4.7-1
	c7-0.1,14-0.2,21,0c3.6,0.1,4.5-1.3,4.4-4.6c-0.3-10-5.5-15.3-15.3-15.4c-1.5,0-3,0.1-4.5,0c-6.2-0.7-11,0.6-12.9,7.6
	c-0.5,1.9-2.5,4.3-5.1,4.1c-2.6-0.2-3-2.9-3.7-4.8c-2.3-6-0.2-10.2,5.9-11.5c5.1-1.1,10.4-1.7,15.6-2.3c1.8-0.2,3.1-0.5,3.8-2.5
	c2.7-7.3,4.3-14.7,4.2-22.7c-0.1-5.4,0.3-10.9,3.3-15.8c0.6-1,1.1-2.1,2.5-2.1c-2.1,5.9-3,12-3,18.3c0,1.8-0.2,3.7,1.9,4.7
	C310.3,60.3,310.8,64.6,312,69z"/>
<path style="fill:#F5CFD6;" d="M67,217c-2.6,5.3-3.6,10.8-4.1,16.7c-0.6,6,1.7,10.1,6.1,13.6c14.7,12.1,29.7,23.9,44,36.5
	c10.9,9.5,22.2,18.5,33.1,27.9c1.1,1,2,2.2,2.9,3.4l0,0c-1.3,0-2.7,0-4,0c-0.3,0-0.6,0-1-0.1c-0.3-0.3-0.7-0.6-1-0.9
	c-10.4-4.7-20.7-9.4-31.1-14.1c-3.1-3-7.4-3.8-10.9-6c0.3-2.5-1.3-2.8-3.2-3.2c-2-0.5-3.9-1.5-0.4-3.8c-2.1,0.5-4.1-0.7-5.4,1.2
	c-0.6-0.1-1.2-1.2-1.9-0.2l0.1,0.1c1-0.7-0.1-1.3-0.1-2c1.6-2,0-1.8-1.2-1.8l0.1,0.1c0.2-1.7,0.7-3.6-1.5-4.4
	c-1.2-0.5-1.2,0.6-1.3,1.3c-0.7,0-1.3-1.2-2-0.2l0.1,0.1c0.9-0.7-0.1-1.2-0.1-1.9c0.9-3.5-1.9-4.6-4-6.2l0,0
	c0.1-1.4-0.5-2.3-1.8-2.8c-0.9-3-1.9-6-5.2-7.3c-1.7-2.6-3.4-5.2-5-7.8c-0.3-0.4-0.7-0.8-1-1.1l0,0c0-0.8-0.1-1.6-1-2l0,0
	c0-0.9-0.1-1.6-1-2l0,0c0-0.9-0.2-1.6-1-2l0,0c-0.4-0.3-0.9-0.7-1.3-1c-2.5-2.7-3.6-5.6-2.8-9.4c0.8-3.5-0.7-6.9-2.7-9.8
	c-1.3-1.8-1.4-3.5,0.4-4.7C60.6,220.9,63,217.6,67,217z"/>
<path style="fill:#E794A1;" d="M378,151c10.8,0.6,20.5,4.8,30.1,9.5c4,2,8,3.9,12,6c2.4,1.2,4.6,0.1,5.9-1.3
	c2.5-2.6,0.3-3.4-2.1-4.2c-11.4-3.4-22.7-7-33.9-10.9c9.3-0.3,18.1,2.8,27.1,3.9c11.7,2.3,23.5,4.6,32.4,13.6c0.7,0.7,1.7,1,2.6,1.5
	c2.1,2.9,6.5,3.7,7,8c-3.3-2.1-5.8-5.4-10-6c-7.8-4.3-16.4-1.4-24.6-2.2c-8.3-0.8-17-0.2-25.5-1.4c-9.9-1.4-19.9-3-29.8-4.5h-0.1
	c-0.5-0.8-1.2-0.9-2.1-0.8c-11.2-2.1-22.2-4.9-33.1-8.2c-1.3-0.4-3-0.8-2.9-2.8c0.3,0,0.6-0.1,0.9-0.2
	C347.3,148.8,362.6,150.6,378,151z"/>
<path style="fill:#5F5F5F;" d="M238.8,492c-1.6-0.8-1.3-3.2-3.1-3.8c0.4-2.2-1-3.8-1.8-5.5c-3.5-7.6-6.3-15.3-7.3-23.7
	c-1.3-11.2-6.8-21.5-8-32.8c-1.1-10.6-3.5-20.9-6.1-31.2c-1.4-5.6,0.7-10.8,1.7-16.2c0.2-1,0.8-2,1.9-2c1.3,0.1,1,1.5,1.4,2.3
	c7.2,15.8,10.4,32.8,14.4,49.6c3.6,15.4,4.6,31.2,6.9,46.8c0.4,2.4,1.7,4.3,2.2,6.5c-1.9,2.2-1.1,4.7-0.5,7
	C241,490.8,241,491.9,238.8,492z"/>
<path style="fill:#5F5F5F;" d="M264.2,486.7c0.2,0.9,0.3,1.9,0.5,2.8c0.6,2.7-1.4,3.9-3.1,5c-2.1,1.2-3.5-0.5-4.2-2.1
	c-0.6-1.5-1.1-2.3-2.7-1.2c1.6-5.6-1.5-10.7-2-16.1c-1-10-2.6-20-3.9-30c0.2-1.4,0.5-2.8-0.5-4.1c-1.5-11.9-3-23.9-4.5-35.8
	c-0.3-6.1-1.5-12.1-0.8-18.2c2.9,0.9,3.8,3.6,4.9,5.9c5.2,10.6,8.6,21.7,9.7,33.6C259.4,446.6,262,466.6,264.2,486.7z"/>
<path style="fill:#BDBCBC;" d="M205.3,466.4c-1.4-9.9-4.8-19.3-7.3-28.9c-4.6-18.1-9.5-36.2-12.3-54.7c-0.3-2.2,0-3.9,1.9-5.8
	c3.8,6.3,5.6,13.1,7.7,19.8c7.8,24.8,13.8,50.1,20.2,75.4c0.4,1.6,0.6,3.3,0.4,4.9c-4.3,5.1-4.4,5-6.9-1.1
	C207.8,472.8,206.6,469.6,205.3,466.4z"/>
<path style="fill:#BDBCBC;" d="M243,387c-0.7,6.1,0.5,12.1,0.8,18.2c-1.3,1.4-0.9,3.2-0.7,4.8c0.7,6.1,1.9,12.1,2.4,18.1
	c0.3,3.4,2.4,6.9,0.4,10.4c-4-9.5-6.2-19.5-9.3-29.3c-3.7-11.8-7.1-23.7-10-35.8c-0.6-2.4-0.6-4.1,1.3-5.7c4.7-2.2,9.4-4.4,14.1-6.6
	c1,1.4,1,3.1,1,4.7C243,372.9,243,379.9,243,387z"/>
<path style="fill:#BDBCBC;" d="M158.3,363.3c19.1,35.9,25.8,75.2,37.7,113.3C188.9,471.4,157.7,377.2,158.3,363.3z"/>
<path style="fill:#E794A1;" d="M285.1,348c-1.9,1.1-4,2-6.1,1.9c-8.3-0.5-15.8,3-23.8,4.5c-8.2,1.5-16.3,3.1-24-2.6
	c-3.3-2.5-7.8-3.4-12-4.5c-2.4-0.6-5.6-0.9-5.5,3.4c-0.2-3.6-2.4-5.2-5.8-5.6c-4.5-0.6-8.3-3.8-13-4.1l0,0c-0.3-1.1-1.2-1.1-2-1l0,0
	c-1.5-1.7-3.3-2.3-5.5-2c-0.4-1.5-1.5-2-3-2c-0.8-0.9-1.8-1.2-3-1l0,0c-1.4-1.9-3.2-2.6-5.5-2l0,0c-0.1-3.6,2.1-1.5,3.2-1.1
	c7.4,2.3,14.7,5,22.5,6.2c10.5,1.5,20.9,3.4,31.4,4.9c1.7,0.3,3.2,1,4.7,1.4c2,6,6.4,8.3,13,7.3C262.2,349.9,273.5,347.1,285.1,348z
	"/>
<path style="fill:#5F5F5F;" d="M205.3,466.4c1.3,3.2,2.5,6.4,3.8,9.6c2.4,6.1,2.6,6.1,6.9,1.1c1.5,4.8,3,9.7,5.8,14
	c4.5,6.7,7.1,6.9,12.2,0.9c1.4,4-1.5,7.2-1.9,10.9c-7.3-2-14.3-4.8-21.8-6.1c-6.6-1.1-12.6-9.5-13.4-17.4c0.9,1,1.6,2.1,2.6,3
	c1.4,1.3,2.6,3.7,4.8,2.6c1.9-0.9,1.6-3.3,1.8-5.3C206.7,475.1,204.3,470.9,205.3,466.4z"/>
<path style="fill:#F7E3E5;" d="M452,169.1c-0.9-0.5-1.9-0.8-2.6-1.5c-8.9-9-20.6-11.3-32.4-13.6c-4.9-7-10.4-12.7-19.8-13
	c-6.2-0.2-11.4-3.7-16.9-6.4c-0.6-0.3-1-0.8-0.8-1.6c0.2-0.8,1-1,1.6-0.8c6.7,1.9,14.2-0.8,20.5,4.1c4,3.1,8.4,5.9,13.6,6.8
	c7.7,5.7,17.5,7.3,25.5,12.4C445.8,158.7,451.4,161.8,452,169.1z"/>
<path style="fill:#7A7A7A;" d="M484.4,307.4c-0.4,0.3-0.8,0.5-1.2,0.8c-0.3-0.3-0.5-0.5-0.8-0.8c1.2-5.3-3.1-8-5.4-11.6
	c0.4-1,0.8-1.9,1.2-2.9c2.7,0.5,5.5,1.3,8.2,1.5c4.6,0.2,6.1-2.4,3.6-6.3c-1.9-3-4.1-6-7.1-8.1c0.4-0.3,0.9-0.7,1.3-1
	c5.6,1.4,11.3,2.8,16.9,4.2c0.9,1.3,0.8,2.3-0.8,2.9c-2,0.6-2.9,2.5-3.9,4.1c-0.6,1-3.4,1.8-0.7,3.6c0.2,3.3-2.2,5.4-3.6,7.8
	c-4.8,8.6-9.2,17.5-15.1,25.4c1.4-6.8,6-12.3,8.3-18.7c0.7-1.3,1.4-2.6,2.1-3.9c0.2-0.4,0.5-0.9,0.7-1.3c0.9-0.3,1.1-1,1.2-1.9
	c0.5-0.2,0.8-0.5,0.3-0.9c-0.2,0.2-0.3,0.5-0.5,0.7c-0.9,0.4-1.2,1.1-1,2c-0.8-0.1-0.9,0.4-1.1,0.9C485.5,304.6,485,306,484.4,307.4
	z"/>
<path style="fill:#F7E3E5;" d="M369,100.9c2.7,2.4,5.3,4.9,8.1,7.1c7.4,6,12.8,13.5,16.2,22.5c-15.1-13.6-31.1-26.1-47.7-37.8
	C353,93.2,359,97.4,366,99C367,99.6,368,100.3,369,100.9z"/>
<path style="fill:#BDBCBC;" d="M160,416.7c5.9,17.5,15.2,33.8,18.7,52.1c0.3,1.7,1.2,4.1-0.9,4.9c-2,0.7-2.4-1.9-3-3.2
	c-3.6-7.3-6.4-14.7-7.3-23C166.3,436.9,162.4,427,160,416.7z"/>
<path style="fill:#F7E3E5;" d="M449,171c4.2,0.6,6.8,3.9,10,6l0,0c0.4,0.9,0.7,0.8,1.1,0c3.4,1.7,2.8,4.9,3,7.9
	c-0.7,0.3-1.8-2.8-2.1,0.1c-0.2,2.3,0.1,4.6,0,6.9c-0.1,2.1-0.3,4.4-2.9,5.2c-0.3-3.2,1-6.2,1.5-9.3c0.5-3.5-2.4-9.6-5.3-9.6
	C448.6,178.3,448.8,174.9,449,171z"/>
<path style="fill:#110D0E;" d="M501.1,283.1c-5.6-1.4-11.3-2.8-16.9-4.2c3.6-2,7.1-3.9,10.7-5.9c2.1,2.4,4.1,4.9,6.2,7.3
	C501.9,281.3,502.6,282.2,501.1,283.1z"/>
<path style="fill:#BDBCBC;" d="M154.9,440.7c4.5,7.8,6.4,16.6,10.8,24.5c-2.5-1-4.6-3.4-9.3-10.6C153.6,450.2,156,445.2,154.9,440.7
	z"/>
<path style="fill:#F5CFD6;" d="M311.9,55.9c-2.1-0.9-1.9-2.8-1.9-4.7c-0.1-6.3,0.8-12.4,3-18.3l0,0c0.3-0.3,0.6-0.7,0.9-1
	c0.3-2.6,2.3-4.4,3.5-6.5c0.4-0.7,1.2-1.4,2-0.9s0.6,1.4,0.2,2.2c-0.3,0.6-0.5,1.3-0.9,1.8C312.4,36.7,312.4,46.3,311.9,55.9z"/>
<path style="fill:#F7E3E5;" d="M245.9,438.5c2-3.5-0.1-7-0.4-10.4c-0.5-6.1-1.7-12.1-2.4-18.1c-0.2-1.6-0.6-3.3,0.7-4.8
	c1.5,11.9,3,23.9,4.5,35.8c-0.4-0.1-0.9-0.3-1.3-0.4l0,0C246.7,439.8,246.3,439.2,245.9,438.5L245.9,438.5z"/>
<path style="fill:#F7E3E5;" d="M73,263c3.3,1.3,4.2,4.3,5.2,7.3c0.2,1.2,0.3,2.4,1.8,2.8l0,0c0,0.7,0.1,1.5,0.1,2.2
	c-3-0.2-4.2-3.6-7-4.1C73,268.4,73,265.7,73,263z"/>
<path style="fill:#F5CFD6;" d="M261.9,67.9c-0.6,4.6-5.2,3.3-7.7,5c-0.8,0.5-2.2,0.1-3.3,0C254,70.1,257.8,68.6,261.9,67.9z"/>
<path style="fill:#110D0E;" d="M495.6,293.7c-2.7-1.7,0.1-2.6,0.7-3.6c1-1.6,1.9-3.4,3.9-4.1C498.7,288.6,497.2,291.1,495.6,293.7z"
	/>
<path style="fill:#BDBCBC;" d="M247,440.5c0.4,0.1,0.9,0.3,1.3,0.4c1.1,1.3,0.8,2.7,0.5,4.1C246.2,444.4,247.2,442.2,247,440.5z"/>
<path style="fill:#F7E3E5;" d="M466.1,197c0-0.6-0.1-1.3-0.1-1.9c0.1-1.1,0.2-2.2,0.3-4.5C468.5,193.7,467,195.3,466.1,197z"/>
<path style="fill:#7A7A7A;" d="M474.4,231.9c-1.8-0.3-2.7-1.5-3.2-3C473,229.1,473.8,230.4,474.4,231.9z"/>
<path style="fill:#F7E3E5;" d="M464,189.9c-1.5-1.4-0.7-3.3-0.8-5C464.6,186.4,463.8,188.3,464,189.9z"/>
<path style="fill:#F7E3E5;" d="M464.9,195.1c-1.3-1.2-0.8-2.7-0.8-4.1C465.4,192.2,464.9,193.7,464.9,195.1z"/>
<path style="fill:#F7E3E5;" d="M156,405c0.7,0.5,1.1,1.1,0.8,2c0,0.1-0.2,0.2-0.4,0.3C156.3,406.5,156.1,405.8,156,405L156,405z"/>
<path style="fill:#F7E3E5;" d="M153.4,398.4c-0.1-0.3-0.1-0.4-0.2-0.6c0.1,0,0.2-0.1,0.4-0.1C153.6,397.9,153.5,398.1,153.4,398.4z"
	/>
<path style="fill:#BDBCBC;" d="M66,252c0.9,0.4,1,1.2,1,2C66.2,253.6,65.9,252.9,66,252z"/>
<path style="fill:#BDBCBC;" d="M65,250c0.9,0.4,1,1.2,1,2C65,251.7,64.9,250.9,65,250z"/>
<path style="fill:#BDBCBC;" d="M64,248c0.8,0.4,1,1.2,1,2C64,249.7,64,248.9,64,248z"/>
<path style="fill:#F7E3E5;" d="M154.4,401.3c0-0.1-0.1-0.3-0.1-0.4c0.1,0,0.3-0.1,0.4-0.1C154.9,401.1,154.8,401.3,154.4,401.3z"/>
<path style="fill:#F7E3E5;" d="M156,405c-0.2-0.4-0.5-0.7-0.7-1.1c0,0,0.2-0.2,0.4-0.3C155.8,404.1,155.9,404.5,156,405L156,405z"/>
<path style="fill:#F7E3E5;" d="M157.8,409.9c0,0.1-0.1,0.3-0.1,0.4c-0.1-0.1-0.3-0.3-0.4-0.4c0.1-0.1,0.2-0.2,0.3-0.3
	C157.6,409.7,157.7,409.8,157.8,409.9z"/>
<path style="fill:#F5CFD6;" d="M132,148c-0.4,0.8-1.1,1-2,1C130.4,148.2,131.1,147.9,132,148z"/>
<path style="fill:#BDBCBC;" d="M67,254c0.3,0.4,0.7,0.8,1,1.1C67.6,254.8,67.3,254.4,67,254z"/>
<path style="fill:#F5CFD6;" d="M130,149c-0.3,0.3-0.7,0.6-1,1C129.3,149.6,129.6,149.3,130,149z"/>
<path style="fill:#E794A1;" d="M460.1,177c-0.4,0.8-0.7,0.9-1.1,0C459.3,177,459.7,177,460.1,177z"/>
<path style="fill:#BDBCBC;" d="M62.7,247c0.4,0.3,0.9,0.7,1.3,1C63.6,247.7,63.1,247.3,62.7,247z"/>
<path style="fill:#F5CFD6;" d="M133,147c-0.3,0.3-0.6,0.7-1,1C132.3,147.6,132.6,147.3,133,147z"/>
<path style="fill:#BDBCBC;" d="M246,438.5c0.3,0.7,0.7,1.3,1,2C246.7,439.8,246.3,439.2,246,438.5z"/>
<path style="fill:#F5CFD6;" d="M133.9,145.8c-0.3,0.4-0.6,0.8-1,1.2C133.3,146.6,133.6,146.2,133.9,145.8z"/>
<path style="fill:#F7E3E5;" d="M313.9,31.9c-0.3,0.3-0.6,0.7-0.9,1C313.3,32.6,313.6,32.3,313.9,31.9z"/>
<path style="fill:#FFFFFF;" d="M243.9,307.7c-30,2.5-59.7,1.7-89-5.6c-5.8-1.5-11.3-3.8-16.8-6L138,296c-2.5-3.6-5.8-6.1-9.9-7.6
	c2-1.9,1.3-3.3-0.4-5.3c-4.4-4.9-10.1-8-15.4-11.5c-6.4-4.2-11.6-9.6-16.1-15.3c-5.5-6.9-10.7-14.2-14.4-22.5c-1.9-4.3-3-8.2,0.4-12
	c1.5-1.8,0.4-5,3.5-5.7c0,6.7,0.8,13.2,3.1,19.5c3.1,8.3,9.2,14.2,15.3,19.9c7.8,7.3,15.8,14.4,24.4,22.2c-0.3-2.7-1.6-3.3-2.5-4.2
	c-8.6-8.8-16.8-17.9-24.6-27.4c-11.2-13.6-12.3-17.7-8.4-34.4c1.5,7.6,4.2,13.6,7.8,19.1c0.1,1.5,0,3,2,3.2c0.1,0.9-0.2,2,0.9,2.4
	c0.2,0.1,0.8-0.4,0.9-0.7c0.2-1.3-0.7-1.6-1.7-1.8c0.1-1.9-0.5-3.6-1.9-5c-2.9-8.5-4.4-17.1-2.5-26.1c3.4,3.4,7.7,4.9,12.1,6.2
	c1.5,2.2,3.1,2.7,5,0.5c0,8.8,5.5,13.4,12.7,17c-0.9-3.6-2.3-6.9-3.7-10.3c-1.4-3.5-1.9-7.5-0.3-10.6c1.7-3.3,6.9-3.3,8.8-7.1
	c0.1-0.3,1.8,0.3,2.7,0.5c1.6,0.3,3.2,0.7,4.8,1.1c0.1,0.7,0.1,1.6,1.2,1.5c0.1,0,0.3-0.2,0.3-0.3c0.1-1.1-0.8-1.1-1.5-1.2
	c-2.8-3.3-5.5-6.6-8.3-9.8c-1.6-1.7-3.3-3.6-5.7-1c-0.3,0.3-0.6,0.5-0.9,0.8l0,0c-2.5-0.1-3.1,2.6-5,3.4c0.5-4.1-1.7-4.9-5.1-4.2
	c-3.7,0.8-7.4,1.8-11.1,2.6c-1.6,0.4-3.5,0.5-4.4-1.3c-1-2,0.5-3.3,1.8-4.2c4.6-2.9,7.8-7.6,13.1-9.6c1.8-0.7,3.1-0.9,4.5,0.6
	c1.3,1.4,1.5,2.9,0.6,4.6c-0.5,0.9-1.2,1.7-1.2,2.6c-0.1,1.5,1,2.5,2.3,3c1.5,0.5,2.1-0.6,2.4-1.8c3.2-11.6,14-10.7,22.5-13.7
	c1.5-0.5,2,1,2.9,2c7.3,8.9,12.3,19.2,17.6,29.3c0.7,1.3,0.7,3.2,2.5,3.4c2,0.1,1.3-1.9,1.9-3c1-1.9,2-1.7,3.5-0.3
	c2.8,2.5,3.7,6.2,5.8,9.2c6,8.5,10.7,17.8,15.1,27.2c5.6,12,15.9,19.8,24.6,29c0.6,0.6,1.3,1.3,2.1,0.6c0.8-0.6,0.5-1.5,0-2.3
	c-7.6-12.4-13.7-25.7-21.6-37.9c-4-6.1-8.5-11.7-13.8-16.8c-10-9.6-16.4-21.9-23-33.8c-4.7-8.4-8-17.4-11.9-26.2
	c-0.6-1.3-1.9-2.7-0.4-4.1c1.3-1.2,2.8-1.4,4.6-0.7c3.7,1.3,7,3.5,10.9,4.4c2,0.5,3.6,2.1,4,4.6c1.9,11.3,9.8,18.5,17.6,25.7
	c14.8,13.4,31.7,23.8,48.8,34.1c12,7.3,24.6,13.2,37.1,19.4c5.5,2.7,11.2,5.3,16.6,8.4c-22.8-6-43.2-17.4-63.5-28.9
	c7.7,7.6,17.8,11.7,25.5,19.5c-3.8-1.8-7.6-3.4-11.2-5.3c-4.8-2.5-9.5-5.4-14.4-7.9c-1.4-0.7-3-2-5-0.4c-1.9,1.4-3.3-0.5-4.7-1.6
	c-6.7-5.1-13.3-10.3-19.9-15.5c-0.3,0.3-0.6,0.5-1,0.8c2.3,2.9,4.4,6,7,8.7c7.6,7.9,13.9,16.8,20.9,25.2
	c10.8,13.1,18.1,28.3,25.6,43.3c2,4,0.2,5.6-2.7,6.8c-13.9,6-27.6,12.6-43.2,13.1c-0.2,0-0.5,0.3-1,0.7c14.5,1.2,28.1-1.8,41.6-6.3
	c9.7-3.3,19.4-6.9,29.1-10.2c2.6-0.9,4.1,0.4,5,2.7c0.8,1.9,0.4,3.9,0.5,5.9C269.5,299,259,302,248.5,305
	C247,305.6,244.7,305.4,243.9,307.7z"/>
<path style="fill:#F5CFD6;" d="M285.1,348c-11.6-0.9-22.9,1.9-34.2,3.6c-6.6,1-11.1-1.2-13-7.3c7.1-1.9,14.2-3.8,21.2-5.9
	c4.9-1.4,9.8-2.8,14.5-4.8c12.7-5.4,26.2-6.6,39.7-7.7c13-1,26-2.6,38.9-3.7c6.1-0.5,12.2-0.4,18.3-1.1c5.8-0.7,8.2-3.8,5.4-9
	c-3.9-7.1-9.6-12.5-16.9-16.1c9.7-2,19.4-3.9,29-6.1c9.6-2.2,19.3-3.7,29-3.7c9.7,0.1,19.6-0.1,29.3,2c1.6,0.4,3.2,1,4.7,1.7
	c1.2,0.5,2.6,1.3,2.5,2.8c0,1.6-1.7,1.8-2.9,2.2c-10,3.2-20.4,4.2-30.7,5.8c-9.6,1.5-19.4,2.1-29.2,4c5,1.4,10.1,2.8,15.1,4.1
	c5.3,1.4,10.6,2.6,15.9,4.1c2.8,0.8,5.3,2,5.4,5.7c0.1,3.9-2.7,5.3-5.5,6.1c-6.2,1.8-12.5,3.2-18.8,4.7c-11,2.6-21.6,6.5-32,10.8
	c-9.9,4.1-20.4,3.9-30.7,5.8c-8.1,1.4-16.3-0.4-24.2,1.9C305.6,346.4,295.3,347,285.1,348z"/>
<path style="fill:#F5CFD6;" d="M449,171c-0.2,3.9-0.4,7.3,5.3,7.2c2.9,0,5.8,6.1,5.3,9.6c-0.5,3.1-1.8,6-1.5,9.3V197
	c-1.5,0-2.1,0.8-2,2.2c-6.5,12.7-21.8,18.5-34.9,13.5c-13.3-5.1-26.6-10-39.9-15c-1.7-0.6-3.6-0.7-5.3-1c-0.4-0.5-0.7-1.5-1.1-1.5
	c-11.1-0.5-21.4-5.1-32.3-6.3c-6.5-0.7-12.4-3.4-18.5-5.5c-1.1-0.4-2.1-1.1-2.1-2.5c1.7,0,3.3,0,5,0c1,0.5,2,1.2,3.1,1.4
	c9,1.9,18,4.4,27.2,5.3c6.2,0.6,12.3,2.4,18.7,2.4c7.7,0,15.4,1.4,23.1,2.4c7.1,0.9,14.1,1.8,21.3,1.4c1-0.1,2.1,0,2.4-1.2
	s-0.7-1.9-1.6-2.1c-2.6-0.6-4.8-2.1-7.3-2.9c-3.3-1.1-7.3-0.6-9.8-3.8c1.5-1.5,5.3-1.3,4.4-4.3c-0.8-2.7-4-1.5-6.2-1.5
	c-11.7-0.1-23.5-0.1-35.2-0.1c-2.8-2.8-8.6-0.6-10-5.8c5,0.5,10.1,0.9,15.1,1.4c0-0.2,0.1-0.4,0.1-0.7c-6.4-1.6-12.8-3.2-19.3-4.8
	c0.4-0.8,0.3-1-0.9-1.5c5.4-2.6,11.5-1.9,17.1-3.7c9.9,1.5,19.8,3.1,29.8,4.5c8.5,1.2,17.1,0.7,25.5,1.4
	C432.6,169.6,441.2,166.7,449,171z"/>
<path style="fill:#FFFFFF;" d="M327,181c-1.7,0-3.3,0-5,0c-22.5-5.8-44.2-14.6-67.4-18.2c-7.1-1.1-13-5.4-19.6-8.2
	c-1.1-0.5-2.1-1.8-4.3-0.6c4.9,5.4,9.7,10.7,16.5,13c9.4,3.1,19.4,4.7,28.5,8.4c8.7,3.5,16.5,9.1,24.9,13.4
	c9.5,4.9,17.7,11.3,25.8,18.3c-6.5-0.4-12-3.7-17.8-5.8c-9.8-3.6-18.4-9.7-27.9-14c-2.5-1.1-5-1.8-7.7-0.9
	c-4.4,1.4-9.1-0.1-13.6,0.9c0.1,2.4,2.9,2,3,4.3c-6.9-1-12.6-4.4-18.1-7.8c-10.2-6.4-20-13.5-30.2-19.9c-3.1-2-4.9-5.3-8.2-6.9
	c-0.3-0.3-0.7-0.7-1-1l0,0c-0.1-1.9-0.9-3.1-3-3l0,0c0.6-1.9-1-3-1.7-4.4c-4.4-8.1-8.3-16.3-4.7-25.8c4-1.8,6.8-5.8,11.2-7
	c2.7-0.8,5.3-3.2,8.3-0.6c0,1.8-0.2,3.7-0.1,5.5c0.4,5.1,1,10.2,6,13.4c8.6,9.9,20.3,15,31.7,20.3c18.7,8.6,38.1,15.2,58.1,20.1
	c5.1,1.3,10.3,2.1,15.6,2.6c2.9,0.3,1.1,1.3,0.8,2.3c1,1.2,2.5,0.6,3.7,1C329.8,181.5,328.3,180.8,327,181z"/>
<path style="fill:#FFFFFF;" d="M289,305.2c1.3-0.1,2.6-0.2,3.9-0.3c3.9,2,7.9,3.9,11.8,5.9c1.5,0.8,3.3,1.6,2.8,3.6
	c-0.4,1.7-2.2,2.2-3.8,2.8c-3.3,1.4-6.9,1.2-10.3,1.4c-14.3,1.2-28.5,3.7-42.8,5.3c-17.9,2-35.4,0.9-52.6-4.4
	c-4.2-1.3-8.4-3.3-13.1-2.6c-1-3.2-3.4-3.1-6-2.2c2,0.7,4,1.5,6,2.2c9.8,4,19.2,9,30.8,11.9c-4.4,1.7-7.6,0.4-10.3-0.2
	c-8-1.7-16-2.2-24-3.6c-7.6-1.3-14.4-4.8-21.8-6.7c-5.7-1.5-6.9-7.5-8.7-12.5c10.9,4.6,22.4,5.9,34.1,6.1
	c25.1,0.5,50.2-0.7,75.2-3.7c9.2-1.1,18.5-2,27.7-3C288.3,305.7,288.7,305.6,289,305.2z"/>
<path style="fill:#F5CFD6;" d="M243.9,307.7c0.9-2.3,3.1-2.2,5-2.7c10.5-3,21-6,31.1-10.1c4.7,1,8.6-1.8,12.8-3.1
	c10.5-3.3,21.3-6,31.4-10.5c3.7-1.6,3.9-3.3,1-6c-3.4-3.1-7.4-5-11.7-6.3c-1.8-0.6-2.5-1.3-2.5-3c14.8,2.7,29.6,5.5,44.5,8.1
	c14.2,2.5,28.4,4.8,43.9,7.4c-7.8,1.9-14.4,3.8-21,5.2c-18.5,3.9-36.9,7.8-55.5,11.3c-16.1,3-32.3,5.4-48.7,6.9
	C264,306,254,307.7,243.9,307.7z"/>
<path style="fill:#FFFFFF;" d="M223,107.4c-0.1-1.9,1-3,2.4-4.1c4.9-3.7,9.6-4,14.9-0.7c7.9,5,16.8,8,25.5,10.9
	c4.7,1.5,8.2,4.4,10.5,7.8c6.7,10,16.6,14.5,27.1,18.9c8.3,3.4,17,5.7,25.9,9.5c-3.6,2.5-6.5,0.6-9.1,0.1
	c-15.3-3.3-30.6-7.1-45.9-10.4c-8.6-1.9-15.8-6.3-23.2-10.7c-6.5-3.9-13-7.8-19.5-11.8c-1.4-0.8-2.8-0.9-4.3-0.9c0-2,0-4,0-6
	c0.9-1.1,1-2.1-0.3-3C225.6,105.6,224.4,107.1,223,107.4z"/>
<path style="fill:#F5CFD6;" d="M419,270c20.4,1.3,40.3-2.4,60.2-6.5c1.4-0.3,3-0.4,4.4-0.4c1.7,0,2.5,0.8,1.9,2.5
	c-1.5,3.9-3.1,7.5-7.4,9.4c-13.2,5.9-26.7,8.1-41.1,5c-12.4-2.7-25.1-4.2-37.7-6.3c-0.4-0.1-0.8-0.5-1.2-0.8
	c4.9-2.5,10-3.5,15.5-2.4C415.4,271,417.3,271.7,419,270z"/>
<path style="fill:#F5CFD6;" d="M367.1,217.9c2.8,3.4,1,6.9,0,10.3c-0.6,2-1.9,1.2-3.2,1c-17.1-2.5-33.9-6.4-50.5-11
	c-14.4-4-28.8-8-42.4-14.1c1.2-1.7,3.1-1.3,4.6-1c20.5,5.1,41.5,7,62.2,11.4c7.5,1.6,15.3,2.2,22.8,4.3
	C362.5,219.4,365.1,219.9,367.1,217.9z"/>
<path style="fill:#F5CFD6;" d="M391,253c13.4,0.6,26.7,2.7,40.2,2.1c9.7-0.4,17.3-3.9,22.5-12.3c0.6-1,1.1-2.2,2-2.8
	c2.5-1.6,4.8-5.5,8-3.2c3.2,2.2,4,6.6,1.6,9.9c-6.4,8.6-14.8,14.7-25.7,16.2s-21.8,0.1-32.7-0.1c-3-3.9-7.9-4.7-12-6.8
	C393.4,255.3,391.3,255.3,391,253z"/>
<path style="fill:#E794A1;" d="M98.7,202.8c-1.9,9-0.4,17.6,2.5,26.1c-0.1,0.6-0.2,1.3-0.3,1.9c-3.7-5.5-6.4-11.5-7.8-19.1
	c-3.9,16.7-2.8,20.8,8.4,34.4c7.8,9.5,16,18.6,24.6,27.4c0.9,0.9,2.1,1.5,2.5,4.2c-8.6-7.8-16.6-14.9-24.4-22.2
	c-6.2-5.8-12.2-11.6-15.3-19.9c-2.4-6.4-3.1-12.9-3.1-19.5c0.9-7.8,3.6-14.8,8.8-20.7c0.9-1,1.7-2.9,3.5-1.7c1.4,1,2.2,2.4,1.8,4.3
	C99.4,199.6,99.1,201.2,98.7,202.8z"/>
<path style="fill:#E794A1;" d="M330.9,180.2c-1.2-0.4-2.7,0.2-3.7-1c13.3-0.4,26.6-0.8,39.8-1.2c11.7,0,23.5,0,35.2,0.1
	c2.2,0,5.3-1.2,6.2,1.5c0.9,3-3,2.8-4.4,4.3c-1.3,0.1-2.6,0.2-4,0.2c-0.3,0-0.7,0-1,0c-5.3,0.7-10.6,0.9-15.8,0.6
	C365.7,183.9,348.2,182.6,330.9,180.2z"/>
<path style="fill:#E794A1;" d="M195.7,122.8c-3.7,9.5,0.3,17.7,4.7,25.8c0.8,1.4,2.3,2.5,1.7,4.4c-6.1-4.2-7.8-10.7-9.2-18.1
	c-4.7,4.9-5.9,10.3-5.3,16.1c0.4,3.7,1.6,7.4,2.5,11.1c-2.2-0.9-3.1-2.7-3.1-5c-2.7-7.8-1.1-16.1-2.8-24c-0.5-2.5,0.5-4.9,1.8-7.1
	c3.7-6.2,7.4-12.5,12.4-17.9c1.2,5.1,1.2,6-1.2,10.1C196.3,119.6,196,121.2,195.7,122.8z"/>
<path style="fill:#E794A1;" d="M352.9,168.1c6.4,1.6,12.8,3.2,19.3,4.8c0,0.2-0.1,0.4-0.1,0.7c-5-0.5-10.1-0.9-15.1-1.4
	c-16.3-2.7-32.8-4.1-48.9-8.3c-2.8-0.7-7.9-1.4-7.3-3.6c0.8-2.8,5.3-0.9,8.3-0.4c13.1,2,26,5,38.9,7.7
	C349.6,167.9,351.3,167.9,352.9,168.1z"/>
<path style="fill:#FFFFFF;" d="M186.9,157.1c0,2.3,0.9,4,3.1,5l-0.1-0.1c-0.2,1.4,0.4,2.6,1.2,3.7c0.6,2.1,1.3,4.2,4.1,4.3
	c1.9,0.1,2.9,1.6,4.1,2.6c7.2,6.2,14.8,11.8,23.5,15.8c0.7,0.3,1.6,0.5,1.8,1.9c-2,0.4-3.8-0.4-5.3-1.3c-11.6-6.9-24-12.7-33.7-22.4
	c-1-1-1.8-2.3-2.8-3.5c-2-2.3-2.8-4.1,1.5-4.2C185.5,159,185.9,157.6,186.9,157.1z"/>
<path style="fill:#FFFFFF;" d="M111.9,299.9c10.4,4.7,20.7,9.4,31.1,14.1c0.3,0.3,0.7,0.6,1,0.9c0.3,0,0.6,0,1,0.1
	c2.7,3.4,5.1,7.2,10.5,5.4c0.8-0.3,1.2,0.2,1.4,1c0.3,1.7-0.3,2.9-1.9,3.6c-8.1-3.8-16.2-7.4-23.6-12.8c-4.2-3.1-8.9-6-14.7-6.3
	c-2.9-0.2-5.5-1.9-7.8-3.9C110.5,302.3,111,300.8,111.9,299.9z"/>
<path style="fill:#E794A1;" d="M227.3,110c0,2,0,4,0,6c-0.1,3.2-0.9,4.8-4.8,3.5c-4.5-1.5-6.6,0.7-5.2,5.4c0.9,3.1,2.4,6.1,3.6,9.1
	c-4.9-3.2-5.5-8.3-6-13.4c-0.2-1.8,0-3.6,0.1-5.5c1.9-3.4,5.6-4.9,8-7.8c1.3-0.2,2.5-1.7,4-0.4C227.1,108,227.2,109,227.3,110z"/>
<path style="fill:#E794A1;" d="M115.9,209.5c-1.9,2.2-3.5,1.7-5-0.5c-0.4-5.1,2.9-8.2,6.1-11.4c1.4-1.4,2.7-2.8,4.1-4.3
	c1.9-0.8,2.5-3.5,5-3.4c0.3,1.7-0.8,2.8-1.4,4.1C121.9,199.4,117.9,203.9,115.9,209.5z"/>
<path style="fill:#E794A1;" d="M295,110c5.3,1,10.5,1.9,15.8,2.9c-1.4,1.3-3.5,1.8-3.9,4c-1.3,0.7-0.5,2.7-1.9,3.3
	c-2.3-1.6-4.6-3.2-6.8-4.9C296.5,114,294.5,112.7,295,110z"/>
<path style="fill:#E794A1;" d="M128.1,288.3c4.1,1.5,7.4,4.1,9.9,7.6C134,294.3,130,292.7,128.1,288.3z"/>
<path style="fill:#E794A1;" d="M202,153c2.1-0.1,2.9,1.2,3,3C203.3,155.7,202.2,154.8,202,153z"/>
<path style="fill:#E794A1;" d="M277.6,221.4c-1.4-0.4-2.8-0.7-4.2-2c2-0.6,3.4,0.5,4.7,1.4C278,221,277.8,221.2,277.6,221.4z"/>
<path style="fill:#E794A1;" d="M191.1,165.7c-0.8-1.1-1.4-2.3-1.2-3.7C190.8,163.1,192.3,164,191.1,165.7z"/>
<path style="fill:#F5CFD6;" d="M149,315c0.5,0.2,1.1,0.5,1.6,0.7c-0.1,0.2-0.3,0.4-0.4,0.6C149.8,315.9,149.4,315.4,149,315L149,315
	z"/>
<path style="fill:#F5CFD6;" d="M405,262.8c-1.1,0.2-2.2,0.2-3.1-0.7C403,262,404.1,261.8,405,262.8z"/>
<path style="fill:#F5CFD6;" d="M367,162.1c0.8-0.1,1.6,0,2.1,0.8C368.2,163,367.5,162.9,367,162.1z"/>
<path style="fill:#FFFFFF;" d="M331.9,150.8c-0.3,0.1-0.6,0.2-0.9,0.2C331.2,150.5,331.5,150.3,331.9,150.8z"/>
<path style="fill:#F5CFD6;" d="M308,265.2c0.4,0.3,0.7,0.5,1.1,0.8C308.7,265.7,308.4,265.4,308,265.2z"/>
<path style="fill:#E794A1;" d="M205,156c0.3,0.3,0.7,0.7,1,1C205.7,156.7,205.3,156.3,205,156z"/>
<path style="fill:#FFFFFF;" d="M302.9,357c3-6.9,6.7-8,12.6-3.8c2.4,1.7,4.7,3.7,6.7,5.9c4.8,5.4,11.2,7.4,17.9,8.5
	c5.4,0.9,8-1.5,8-7c0-3.9,1-7.4,3.1-10.7c3.2-2.5,5.9-6.9,10.5-2.1c3.4,4.3,6.6,8.7,10.1,12.9c1.5,1.8,3,4.2,6.2,3.1
	c0.3,2.9-1.4,5.6-0.7,8.5c-0.4,1.1-0.9,2.2-1.2,3.3c-6.7,25.6-13.6,51.1-21.2,76.4c-0.6,0.3-0.8,0.7-0.6,1.3
	c-0.1,0.2-0.3,0.5-0.3,0.8c-4.8,4.2-5.7,4-8-2.3c-0.3-0.9-0.8-1.8-1.2-2.7c-0.6-3.9-2.1-7.8-1.6-11.8c1.7-14,3.4-27.9,5.3-41.9
	c0.5-3.7,0-6.9-1.5-10.1c-0.5-1.1-0.3-3-2.1-3c-2.1,0.1-1.8,2-2.1,3.4c-3,11.9-4.5,24.1-6.7,36.2c-4,22-5.8,44.4-11.1,66.3
	c-4.5,6.5-5.3,6.6-12.9,1c-0.7-2.4-5.2-0.7-4.4-5.9c2.9-17.4,4.6-34.9,6.6-52.4c1.6-13.9,1.6-27.9,2.2-41.9c0.2-4.9,0.3-9.6-2.3-14
	c-1.4-2.3-1.9-6.3-5.2-5.8c-2.8,0.5-2.4,4.2-3.1,6.7c-1.5-1.9-0.7-4.1-0.8-6.1C304.7,365.4,304.6,361.1,302.9,357z"/>
<path style="fill:#110D0E;" d="M457.9,309.9c0.9,0.7,1.7,1.7,2.7,2c6,1.8,7.2,6.1,6.3,11.6c-0.7,4.8-2.9,6.3-7.9,5.8
	c-7.6-0.7-15-2.7-22.5-4.1c0.1,0.4,0.1,0.8,0.2,1c1.7,2.6,4.9,5.3,2.6,8.3c-2.4,3.3-6.2,1-9.1-0.2c-5.2-2.1-9.8-5.5-15.8-5.4
	c3.1-2,6.4,0.3,9.7-0.6c4.1-1.2,7.9-2.4,11.4-5.2c6.2-4.7,13-8.7,19.5-13C456.1,310.1,457,310,457.9,309.9z"/>
<path style="fill:#110D0E;" d="M414.1,328.9c-5.9,3.1-5.3,9-6.1,14.2c-0.5,3.3,0.6,8.1-2.6,9.5c-3.2,1.4-5.2-3.3-7.5-5.4
	c-3.8-3.6-8.8-4.9-12.9-7.9c2.7-0.4,5.5-1.2,8.2-1.2c5.4,0,10.6,0.7,13.8-5.5C408.2,330.2,411.1,328.8,414.1,328.9z"/>
<path style="fill:#110D0E;" d="M378,363.7c-3.1,1.2-4.7-1.3-6.2-3.1c-3.5-4.2-6.8-8.6-10.1-12.9c1.1-0.6,2.4-1.8,3.4-1.6
	c5.3,0.7,9.7-0.9,13.7-4.2c-1.4,2.6-1.1,5.3-0.8,8.1c0,2.3,0.1,4.6,0.1,6.9C378.2,359.2,379,361.5,378,363.7z"/>
<path style="fill:#110D0E;" d="M477,295.8c2.4,3.6,6.7,6.3,5.4,11.6c-7.6,2.5-15.2,0.3-22.9,0.6c0.1-0.3,0.3-0.6,0.4-0.9
	c5.6-3.3,11.1-6.8,16.1-11C476.4,296,476.7,295.9,477,295.8z"/>
<path style="fill:#110D0E;" d="M482.9,280c3,2.1,5.1,5.1,7.1,8.1c2.5,3.9,0.9,6.5-3.6,6.3c-2.8-0.1-5.5-1-8.2-1.5
	c-0.1-0.3-0.2-0.5-0.3-0.8C478,287.4,479,283.1,482.9,280z"/>
<path style="fill:#F5CFD6;" d="M477.8,292.1c0.1,0.3,0.2,0.5,0.3,0.8c-0.4,1-0.8,1.9-1.2,2.9c-0.3,0.1-0.6,0.2-0.9,0.3
	c-1-2.4-3.1-4-4.4-6.4C473.7,290.5,475.8,291.3,477.8,292.1z"/>
<path style="fill:#F5CFD6;" d="M347.6,350.1c-4.1,1.9-8.3,1.1-12.5,0.6C339.2,349.4,343.5,350.5,347.6,350.1z"/>
<path style="fill:#F5CFD6;" d="M457.9,309.9c-0.9,0.1-1.9,0.2-2.8,0.3c-0.3-1.3-2.4-1.1-2.3-3c1.8,0.3,3.5,0.6,5.2,0.9
	C458,308.7,458,309.3,457.9,309.9z"/>
<path style="fill:#F7E3E5;" d="M456,199.2c0-1.4,0.6-2.2,2-2.2C458,198.4,457.3,199,456,199.2z"/>
<path style="fill:#F5CFD6;" d="M460,307c-0.1,0.3-0.3,0.6-0.4,0.9c-0.5,0-1,0.1-1.6,0.1C458.6,307.7,459.3,307.4,460,307z"/>
<path style="fill:#F7E3E5;" d="M289,305.2c-0.3,0.4-0.7,0.5-1,0C288.3,305.2,288.7,305.2,289,305.2z"/>
<path style="fill:#FFFFFF;" d="M243,387c0-7,0-14.1,0-21.1c0-1.6,0-3.3-1-4.7c2.9-2.3,4.3-0.9,6,1.8c3.8,6.3,8.2,12.1,16.7,11.8
	c1.9,1.8,1.1,4.1,1.1,6.1c0.1,4.5-0.9,9.5,7.2,9.5c-6.7-0.7-6.4,2.3-5.5,6.4c0.9,4,0.7,8.2,1.2,12.3c2.5,20.8,5,41.7,8.2,62.4
	c0.2,1.3,0.5,2.3,2,2.4c1.3,6,0.8,12.4,4.2,18c-3.8,6.2-6.7,6.4-12,1.4c-2.3-2.2-3.3-5.9-7-6.6c-2.2-20.1-4.8-40.2-6.6-60.3
	c-1.1-11.9-4.5-23-9.7-33.6C246.8,390.6,245.9,387.8,243,387z"/>
<path style="fill:#FFFFFF;" d="M280,363c0.3-1.1,0.6-2.2,1.6-2.8c4.3,8.1,6.9,9.6,13.3,7.9c0.2,26.1,1.2,52.1,4,79
	c2.9-3.7,1.6-7,2.2-10.1c0.3,0,0.5,0,0.8,0c0.1,13.9-1.8,27.8-1.1,41.7c0.1,2.5-0.3,4.9-1,7.3c-3.5,5.1-8.8,6-14.4,6
	c0.6-31.6,2-63.2,1.5-94.8c-0.1-6.1-1.9-12.1-6-17C280.4,374.4,282.2,368.6,280,363z"/>
<path style="fill:#5F5F5F;" d="M299.9,486c0.8-2.4,1.2-4.8,1-7.3c-0.8-13.9,1.1-27.8,1.1-41.7c1.8-13.9,1.8-27.9,2.6-41.8
	c0.4-6.4,0.9-12.9,1.3-19.3c0.6-2.5,0.3-6.3,3.1-6.7c3.3-0.5,3.8,3.4,5.2,5.8c2.6,4.3,2.5,9,2.3,14c-0.7,14-0.6,28-2.2,41.9
	c-2,17.5-3.7,35-6.6,52.4c-0.9,5.1,3.7,3.5,4.4,5.9c-3.4-0.6-6.2-0.2-6.6,4.1c-0.1,0.6-0.5,1.3-1.3,1.1c-1-0.2-1.8-0.8-1.9-2
	C301.9,490,301.7,487.7,299.9,486z"/>
<path style="fill:#5F5F5F;" d="M324.9,488.1c5.2-21.8,7-44.2,11.1-66.3c2.2-12.1,3.7-24.3,6.7-36.2c0.3-1.4,0-3.3,2.1-3.4
	c1.8,0,1.6,1.9,2.1,3c1.5,3.2,2.1,6.4,1.5,10.1c-2,13.9-3.6,27.9-5.3,41.9c-0.5,4,1,7.9,1.6,11.8c-2.1,0.1-1.1-2.5-2.3-2.9
	c-2.9,11.6-3.1,23.6-6.5,35c-1.4,4.5-3.4,8-9.2,6.3C326.2,487.2,325.5,487.8,324.9,488.1z"/>
<path style="fill:#5F5F5F;" d="M280.9,380.1c4.1,4.9,5.9,10.9,6,17c0.5,31.6-0.8,63.2-1.5,94.8c-0.8,0-1.5,0-2.3,0.1
	c-3.4-5.5-2.9-11.9-4.2-18c0-17.9,1.2-35.9-0.8-53.7c-1-8.9-1.8-17.9-1-26.8C277.6,388.9,276.6,383.7,280.9,380.1z"/>
<path style="fill:#110D0E;" d="M392.6,450.6c7.1-28.3,19.5-54.7,30.9-81.3c3.9-9,7.8-18,12.7-26.5c0.7-1.2,1.3-3.3,3.2-2.3
	c1.5,0.8,0.2,2.5-0.3,3.6c-15.2,35.7-30.5,71.4-45.7,107.1C393,451,392.8,450.8,392.6,450.6z"/>
<path style="fill:#110D0E;" d="M403.3,362.9c-6.5,32.8-17.8,64.3-27.7,96.7C372.7,444.3,395.1,376.5,403.3,362.9z"/>
<path style="fill:#110D0E;" d="M354.8,451.9c7.6-25.3,14.6-50.8,21.2-76.4c0.3-1.1,0.8-2.2,1.2-3.3c1.5,10.2,0,20-3.1,29.8
	c-7.2,23.1-14.5,46-22.7,68.8c-0.2,0.5-0.5,0.9-1.4,2.4c0.8-7.4,4.3-13,3.9-19.3c0.1-0.3,0.2-0.5,0.3-0.8
	C354.9,452.9,355,452.5,354.8,451.9z"/>
<path style="fill:#110D0E;" d="M448.3,352.3c-5.5,13.7-11,27.4-16.7,41c-6.1,14.7-12.4,29.3-18.7,44c-0.6,1.5-1.4,3-2.5,5.3
	c-0.7-3.4,1-5.2,1.7-7.1c10.5-26.9,19.7-54.3,33.5-79.8c0.7-1.3,1.5-2.6,2.2-3.9C448,352,448.1,352.1,448.3,352.3z"/>
<path style="fill:#BDBCBC;" d="M378.1,356.9c0-2.3-0.1-4.6-0.1-6.9C379.4,352.3,379.6,354.6,378.1,356.9z"/>
<path style="fill:#110D0E;" d="M450,348c0.1,1.7-0.7,3-1.7,4.3c-0.1-0.1-0.3-0.3-0.4-0.4C448.2,350.4,448.5,348.8,450,348L450,348z"
	/>
<path style="fill:#110D0E;" d="M393.3,451.2c-0.4,0.9-0.8,1.8-1.3,2.7v0.1c0.2-1.1,0.3-2.3,0.5-3.4C392.8,450.8,393,451,393.3,451.2
	z"/>
<path style="fill:#5F5F5F;" d="M406.6,450.6c0,0.1,0.1,0.3,0.1,0.4c-0.2,0-0.4,0.1-0.6,0.1c0-0.1,0-0.3,0.1-0.4
	C406.3,450.6,406.5,450.6,406.6,450.6z"/>
<path style="fill:#110D0E;" d="M451.6,343.8c0,0.1,0.1,0.3,0.1,0.4c-0.1,0.5-0.2,0.5-0.4,0.1c0-0.1,0-0.3,0.1-0.4
	C451.4,343.9,451.5,343.9,451.6,343.8z"/>
<path style="fill:#110D0E;" d="M450,348c0.1-0.5,0.2-0.9,0.2-1.4c0.2,0.1,0.4,0.2,0.5,0.4C450.5,347.3,450.3,347.7,450,348L450,348z
	"/>
<path style="fill:#110D0E;" d="M409.8,444c-0.2,0.2-0.4,0.3-0.6,0.4c0-0.3-0.1-0.6-0.1-0.9c0-0.1,0.2-0.3,0.3-0.4
	C409.6,443.5,409.7,443.8,409.8,444z"/>
<path style="fill:#5F5F5F;" d="M407.9,448.3c-0.1,0.1-0.3,0.2-0.4,0.3c-0.1-0.3-0.2-0.5-0.3-0.8c0-0.1,0.2-0.2,0.4-0.3
	C407.7,447.7,407.8,448,407.9,448.3z"/>
<path style="fill:#110D0E;" d="M392,454c-0.1,0.1-0.1,0.2-0.2,0.3C391.9,454.2,392,454.1,392,454C392.1,454,392,454,392,454z"/>
<path style="fill:#F7E3E5;" d="M306.9,116.8c0.5-2.2,2.6-2.7,3.9-4c6.5,0.6,12.5,2.7,18,6.2c1.1,0.6,2.2,1.2,1.9,2.5
	c-0.4,1.9-1.8,0.6-2.8,0.6c-4.2,0.1-8.4-1-12.6,1.3C311.6,125.6,307.9,122.4,306.9,116.8z"/>
<path style="fill:#F7E3E5;" d="M343.1,91.8c-0.1,0-0.2-0.1-0.3-0.1c0.1-0.1,0.3-0.3,0.4-0.4c0.1,0.1,0.2,0.2,0.3,0.3
	C343.3,91.6,343.2,91.7,343.1,91.8z"/>
<path style="fill:#E794A1;" d="M111.9,299.9c-0.9,0.8-1.4,2.3-3.1,2c-3.5-0.7-6.7-2.1-9.7-4c-0.7-0.6-1.3-1.2-2-1.8
	c-0.1-0.2-0.2-0.3-0.3-0.4c0.5-2.7,2.6-1.4,4.1-1.7C104.5,296.1,108.8,297,111.9,299.9z"/>
<path style="fill:#F7E3E5;" d="M101,294c-1.5,0.4-3.6-1-4.1,1.7c-2.9,0-4-1.9-4.7-4.4c0.4,0.2,0.8,0.5,1.2,0.7
	c0.1-0.4,0.5-0.9,0.3-1.2c-0.5-1-1.2-1.9-1.9-2.8c1.3-1.9,3.3-0.7,5.4-1.2c-3.4,2.3-1.6,3.3,0.4,3.8C99.7,291.2,101.3,291.5,101,294
	z"/>
<path style="fill:#E794A1;" d="M80.1,275.2c0-0.7-0.1-1.5-0.1-2.2c2.1,1.6,4.9,2.7,4,6.2c-1.1,0-0.7,0.9-0.8,1.5
	C82.1,278.8,81.1,277,80.1,275.2z"/>
<path style="fill:#110D0E;" d="M90,286c0,0.7,1.1,1.3,0.1,2c-2.3-1.2-3.3-3.5-4.8-5.4c0.3-0.2,0.5-0.5,0.8-0.7
	c0.9,0.8,1.8,1.5,2.7,2.3l-0.1-0.1C89.2,284.8,89.6,285.4,90,286z"/>
<path style="fill:#110D0E;" d="M91.9,288.1c0.6,0.9,1.3,1.8,1.9,2.8c0.1,0.2-0.2,0.8-0.3,1.2c-0.4-0.2-0.8-0.5-1.2-0.7
	c-0.7-1.1-1.5-2.3-2.2-3.4C90.8,287,91.3,288.1,91.9,288.1z"/>
<path style="fill:#F7E3E5;" d="M176,333c2.3-0.6,4.1,0.1,5.5,2C179.4,335.2,177.4,334.9,176,333z"/>
<path style="fill:#FFFFFF;" d="M187.5,338c2.2-0.3,4.1,0.3,5.5,2C190.8,340.2,189.1,339.3,187.5,338z"/>
<path style="fill:#F7E3E5;" d="M97.2,296.1c0.7,0.6,1.3,1.2,2,1.8C98,298,97,297.7,97.2,296.1z"/>
<path style="fill:#FFFFFF;" d="M193,340c0.9,0,1.7,0,2,1C194.1,341.1,193.3,341,193,340z"/>
<path style="fill:#F7E3E5;" d="M181.5,335c1.2-0.2,2.2,0.1,3,1C183.4,336.1,182.3,335.9,181.5,335z"/>
<path style="fill:#110D0E;" d="M83.9,280.9c0.8-1,1.3,0.2,2,0.2c0,0.3,0.1,0.5,0.1,0.8c-0.3,0.2-0.5,0.5-0.8,0.7
	C84.8,282.1,84.4,281.5,83.9,280.9z"/>
<path style="fill:#110D0E;" d="M83.2,280.7c0.1-0.6-0.4-1.4,0.8-1.5c0,0.6,1.1,1.2,0.1,1.9C83.8,280.9,83.5,280.8,83.2,280.7z"/>
<path style="fill:#BDBCBC;" d="M280.9,380.1c-4.3,3.6-3.4,8.8-3.8,13.4c-0.8,8.9,0,17.9,1,26.8c2.1,17.9,0.9,35.8,0.8,53.7
	c-1.5-0.1-1.8-1.1-2-2.4c-3.2-20.8-5.7-41.6-8.2-62.4c-0.5-4.1-0.3-8.3-1.2-12.3c-0.9-4.1-1.3-7.1,5.5-6.4c-8.1,0-7.1-5-7.2-9.5
	c0-2.1,0.7-4.4-1.1-6.1c6.4-2.2,11-6.8,15.2-11.8C282.2,368.6,280.4,374.4,280.9,380.1z"/>
<path style="fill:#BDBCBC;" d="M305.8,375.9c-0.4,6.4-0.9,12.9-1.3,19.3c-0.9,0.3-1.4,0.8-1.4,1.7c-0.6,13.4-1.3,26.7-1.9,40.1
	c-0.6,3,0.7,6.3-2.2,10.1c-2.8-26.9-3.7-52.9-4-79c3.9-2.8,5.6-7.1,7.9-11c1.7,4.1,1.7,8.5,2.1,12.8
	C305.2,371.8,304.3,374,305.8,375.9z"/>
<path style="fill:#F7E3E5;" d="M86.1,281.9c0-0.3-0.1-0.5-0.1-0.8c0.2-0.7,0.1-1.8,1.3-1.3c2.2,0.8,1.7,2.7,1.5,4.4
	C87.9,283.5,87,282.7,86.1,281.9z"/>
<path style="fill:#F7E3E5;" d="M90,286c-0.4-0.6-0.8-1.2-1.2-1.8C90,284.2,91.6,284.1,90,286z"/>
<path style="fill:#E794A1;" d="M80,273c-1.5-0.3-1.6-1.6-1.8-2.8C79.4,270.7,80,271.7,80,273z"/>
<path style="fill:#F7E3E5;" d="M144,315c-0.3-0.3-0.7-0.6-1-0.9C143.3,314.3,143.7,314.7,144,315z"/>
<path style="fill:#110D0E;" d="M484.4,307.4c0.6-1.4,1.1-2.8,2.5-3.5c0.1,0.1,0.3,0.3,0.4,0.4c-0.7,1.3-1.4,2.6-2.1,3.9
	C485,307.9,484.7,307.7,484.4,307.4z"/>
<path style="fill:#110D0E;" d="M487.9,302.9c-0.2-1,0.1-1.6,1-2l0.2,0.2C489.1,302,488.9,302.7,487.9,302.9L487.9,302.9z"/>
<path style="fill:#110D0E;" d="M488.9,300.9c0.2-0.2,0.3-0.5,0.5-0.7c0.5,0.5,0.3,0.8-0.3,0.9C489.2,301.2,488.9,300.9,488.9,300.9z
	"/>
<path style="fill:#110D0E;" d="M486.9,303.9c0.2-0.5,0.3-1.1,1.1-0.9l0.1,0.1c-0.2,0.4-0.5,0.9-0.7,1.3
	C487.2,304.2,487,304,486.9,303.9z"/>
<path style="fill:#F7E3E5;" d="M115.9,209.5c2-5.7,6.1-10.2,8.7-15.5c0.7-1.3,1.8-2.4,1.4-4.1l0,0c0.3-0.3,0.6-0.5,0.9-0.8
	c2.4-2.6,4.2-0.8,5.7,1c2.9,3.2,5.6,6.5,8.3,9.8l0,0c-1.6-0.4-3.2-0.7-4.8-1.1c-0.9-0.2-2.6-0.7-2.7-0.5c-2,3.8-7.1,3.8-8.8,7.1
	c-1.6,3.1-1.1,7.1,0.3,10.6c1.3,3.4,2.8,6.7,3.7,10.3C121.4,222.9,115.8,218.3,115.9,209.5z"/>
<path style="fill:#F5CFD6;" d="M100.9,230.8c0.1-0.6,0.2-1.3,0.3-1.9c1.3,1.4,2,3.1,1.9,5L103,234
	C100.9,233.9,101,232.3,100.9,230.8z"/>
<path style="fill:#F5CFD6;" d="M103,234c1,0.2,1.9,0.5,1.7,1.8c-0.1,0.3-0.7,0.8-0.9,0.7C102.6,236.1,103,235,103,234L103,234z"/>
<path style="fill:#F7E3E5;" d="M141,200c0.7,0.1,1.6,0.1,1.5,1.2c0,0.1-0.2,0.3-0.3,0.3C141.1,201.6,141.1,200.7,141,200L141,200z"
	/>
<path style="fill:#E794A1;" d="M126.9,189.2c-0.3,0.3-0.6,0.5-0.9,0.8C126.3,189.8,126.6,189.5,126.9,189.2z"/>
<path style="fill:#F7E3E5;" d="M400,184.2c1.3-0.1,2.6-0.2,4-0.2c2.5,3.2,6.5,2.7,9.8,3.8c2.5,0.8,4.7,2.3,7.3,2.9
	c0.9,0.2,1.9,0.9,1.6,2.1s-1.4,1.2-2.4,1.2c-7.1,0.4-14.2-0.5-21.3-1.4c-7.7-1-15.4-2.3-23.1-2.4c-6.4,0-12.4-1.8-18.7-2.4
	c-9.1-0.9-18.1-3.4-27.2-5.3c-1.1-0.2-2.1-0.9-3.1-1.4c1.3-0.2,2.8,0.4,3.9-0.9c17.3,2.5,34.8,3.8,52.3,4.7
	c5.3,0.3,10.6,0.1,15.8-0.6C399.3,184.7,399.7,184.6,400,184.2z"/>
<path style="fill:#F7E3E5;" d="M185,317c-2-0.7-4-1.5-6-2.2C181.6,314,184,313.8,185,317L185,317z"/>
<path style="fill:#F7E3E5;" d="M227.3,110c-0.1-1-0.2-2-0.3-3C228.3,107.9,228.2,108.9,227.3,110z"/>
<path style="fill:#F5CFD6;" d="M400,184.2c-0.3,0.4-0.7,0.5-1,0C399.3,184.2,399.7,184.2,400,184.2z"/>
<path style="fill:#7A7A7A;" d="M354.8,451.9c0.2,0.6,0,1.1-0.6,1.3C354,452.5,354.3,452.1,354.8,451.9z"/>
<path style="fill:#F7E3E5;" d="M301.2,437c0.6-13.4,1.3-26.7,1.9-40.1c0-1,0.6-1.5,1.4-1.7c-0.8,13.9-0.8,27.9-2.6,41.8
	C301.7,437,301.4,437,301.2,437z"/>
</svg>
