<?xml version="1.0" standalone="no"?>
<!DOCTYPE svg PUBLIC "-//W3C//DTD SVG 20010904//EN"
 "http://www.w3.org/TR/2001/REC-SVG-20010904/DTD/svg10.dtd">
<svg version="1.0" xmlns="http://www.w3.org/2000/svg"
 width="2061.000000pt" height="2061.000000pt" viewBox="0 0 2061.000000 2061.000000"
 preserveAspectRatio="xMidYMid meet">
<metadata>
Created by potrace 1.11, written by Peter Selinger 2001-2013
</metadata>
<g transform="translate(0.000000,2061.000000) scale(0.100000,-0.100000)"
fill="#000000" stroke="none">
<path d="M11924 20602 c-23 -15 -154 -225 -166 -265 -6 -23 -24 -56 -38 -73
-29 -34 -77 -193 -104 -344 -34 -185 -47 -488 -25 -547 13 -34 59 -84 71 -77
4 3 8 38 8 77 0 40 5 135 10 212 27 360 96 596 235 800 53 77 85 145 85 180 0
34 -47 57 -76 37z"/>
<path d="M9482 18775 c-113 -29 -217 -78 -303 -142 l-64 -48 56 -8 c48 -8 63
-6 102 12 25 12 77 28 114 37 126 28 178 67 197 147 8 32 14 32 -102 2z"/>
<path d="M11641 18720 c-26 -43 -26 -66 -1 -132 22 -58 26 -118 10 -148 -15
-28 -47 -42 -110 -49 l-55 -6 74 -24 c40 -14 146 -60 235 -104 236 -116 321
-152 442 -187 137 -39 306 -121 410 -197 110 -83 250 -233 334 -360 40 -60
107 -180 151 -268 43 -88 97 -189 119 -224 38 -62 45 -86 41 -141 -4 -50 -6
-51 -83 -24 -190 65 -447 128 -711 173 -222 39 -321 52 -786 106 -409 48 -450
54 -774 115 -115 22 -234 40 -264 40 l-56 0 6 -37 c4 -24 16 -46 33 -59 28
-23 111 -49 183 -59 24 -3 56 -12 71 -20 30 -15 52 -62 43 -93 -2 -10 0 -37 6
-60 15 -53 84 -117 269 -247 78 -55 142 -107 142 -115 0 -9 -7 -26 -16 -38
-13 -18 -24 -22 -72 -22 -31 0 -86 9 -120 20 -35 11 -78 20 -95 20 -35 0 -117
-34 -117 -48 0 -8 738 -232 1040 -316 333 -93 675 -172 1440 -336 644 -138
744 -162 803 -191 55 -27 104 -74 129 -123 21 -41 48 -152 48 -200 l0 -28
-122 6 c-973 50 -1322 53 -1676 16 -122 -13 -152 -25 -152 -57 0 -41 41 -69
146 -102 390 -119 938 -257 1284 -322 61 -11 120 -42 103 -52 -9 -5 -129 -25
-345 -56 -138 -21 -299 -66 -305 -88 -2 -6 5 -14 17 -18 12 -4 19 -12 17 -18
-10 -28 -164 -5 -587 84 -543 115 -765 160 -1025 204 -116 20 -250 44 -300 55
-141 30 -162 32 -206 20 -33 -9 -43 -18 -56 -47 -13 -33 -13 -38 5 -62 30 -41
76 -57 321 -116 405 -97 628 -136 1326 -235 237 -34 484 -70 550 -81 66 -10
123 -19 127 -19 4 0 10 -10 13 -22 12 -40 55 -87 96 -109 23 -11 81 -29 131
-40 94 -20 152 -41 161 -56 3 -5 -343 -19 -811 -32 -449 -13 -819 -26 -822
-28 -9 -8 33 -33 64 -37 537 -77 1265 -146 2021 -192 276 -17 736 -15 852 4
33 5 56 5 63 -2 6 -6 17 -6 32 1 13 6 56 14 96 17 73 6 73 6 109 -29 45 -43
110 -68 253 -95 74 -14 144 -35 204 -62 50 -22 132 -54 181 -72 71 -26 93 -38
103 -59 19 -39 -2 -78 -48 -90 -56 -15 -465 -1 -665 23 -99 11 -297 37 -440
56 -391 52 -509 64 -755 74 -186 8 -267 16 -465 49 -132 22 -314 49 -405 61
-312 38 -1083 202 -1157 246 -37 21 -53 24 -152 24 -127 0 -136 -8 -78 -64 25
-26 78 -49 260 -115 273 -98 401 -132 602 -161 176 -25 297 -51 611 -131 259
-65 460 -105 608 -118 78 -7 102 -13 113 -27 19 -25 17 -32 -15 -48 -16 -8
-48 -40 -72 -71 -62 -80 -142 -150 -195 -171 -39 -15 -53 -15 -99 -5 -63 14
-179 80 -261 150 -33 28 -75 59 -93 68 -31 16 -35 16 -67 -1 -40 -22 -60 -63
-51 -109 9 -49 80 -190 141 -282 29 -44 97 -132 150 -195 53 -63 123 -147 156
-187 l60 -72 -40 -20 c-72 -37 -104 -36 -286 8 -94 22 -307 63 -475 91 -168
27 -394 68 -504 90 -288 58 -531 100 -1066 185 -695 110 -993 165 -1355 251
-162 39 -205 40 -253 6 l-28 -21 -493 185 c-272 102 -496 182 -500 178 -11
-11 97 -102 166 -140 105 -59 531 -236 993 -414 680 -261 1396 -498 2105 -695
554 -154 1403 -355 1503 -355 104 0 150 -42 122 -111 -27 -65 -169 -104 -410
-114 -488 -19 -1114 97 -1990 370 -366 115 -1178 393 -1218 419 -22 13 -58 29
-80 36 -42 11 -92 5 -92 -11 0 -12 84 -59 134 -74 24 -7 79 -33 122 -58 421
-238 1013 -477 1619 -652 498 -144 1352 -337 1965 -444 150 -26 1044 -171
1056 -171 2 0 4 -7 4 -15 0 -26 53 -74 105 -94 163 -62 375 -155 422 -183 29
-18 70 -49 90 -70 l37 -38 -31 0 c-17 0 -44 6 -60 14 -20 11 -145 22 -447 41
-230 14 -419 25 -421 23 -1 -2 -5 -13 -9 -24 -6 -20 -1 -23 56 -36 602 -136
1408 -324 1408 -329 0 -12 -58 -31 -92 -31 -18 0 -80 8 -137 17 -189 32 -381
8 -561 -68 -72 -31 -79 -32 -160 -25 -47 4 -404 57 -794 118 -1439 225 -1626
249 -2466 319 -679 57 -687 57 -718 34 -15 -11 -28 -27 -30 -35 -6 -29 253
-128 333 -128 13 0 28 -6 34 -14 6 -8 31 -17 55 -20 38 -6 44 -10 50 -37 9
-47 44 -72 146 -108 199 -69 337 -148 445 -254 89 -87 98 -141 31 -192 -81
-62 -509 -215 -1061 -380 -176 -52 -378 -118 -450 -146 -169 -66 -273 -93
-339 -86 -44 5 -68 -1 -171 -40 -275 -104 -834 -281 -1145 -363 -184 -48 -208
-58 -233 -95 -20 -32 -23 -33 -112 -39 -727 -56 -1440 -59 -2045 -11 -510 41
-1079 132 -1514 241 -191 48 -298 83 -536 176 -169 66 -209 85 -230 111 -49
63 -123 137 -176 178 -53 41 -224 133 -231 125 -11 -11 46 -96 96 -146 58 -59
146 -113 249 -155 43 -18 75 -41 114 -81 29 -31 93 -88 142 -126 98 -76 321
-216 376 -236 336 -123 583 -181 925 -217 231 -24 745 -38 1190 -31 899 14
1535 56 2435 161 331 39 1117 120 1255 130 50 3 110 13 135 20 25 8 162 30
305 50 143 20 355 49 470 65 116 16 320 41 455 55 135 14 405 50 600 80 426
66 573 84 746 92 l130 6 80 -42 c250 -131 504 -389 630 -638 80 -160 41 -273
-114 -327 -66 -24 -180 -35 -523 -51 -361 -18 -352 -17 -1134 -95 -324 -33
-705 -68 -845 -80 -868 -70 -1174 -130 -1670 -325 -195 -77 -342 -125 -685
-223 -324 -93 -764 -212 -784 -212 -10 0 -44 9 -77 20 -53 19 -223 47 -1249
210 -334 53 -386 63 -570 115 -169 48 -548 171 -584 189 -59 31 -101 16 -101
-36 0 -33 2 -33 -139 -12 -275 40 -478 117 -649 246 -36 28 -124 77 -195 109
-361 166 -641 320 -867 478 -267 187 -384 240 -594 267 -124 16 -189 42 -289
116 l-58 43 30 7 c16 5 45 26 64 48 l34 40 646 -294 c356 -161 659 -304 673
-317 24 -22 33 -24 121 -23 95 2 97 1 121 -27 19 -23 27 -27 38 -18 22 18 17
26 -20 39 -23 7 -49 30 -78 67 -49 64 -137 141 -728 633 -234 195 -567 476
-740 625 -402 346 -730 619 -1362 1133 -278 227 -530 439 -560 470 -66 72
-122 177 -144 268 -42 179 29 596 151 877 6 13 2 17 -17 17 -39 0 -136 -54
-218 -120 -41 -34 -100 -82 -131 -106 -91 -73 -100 -116 -43 -210 118 -194
140 -281 112 -445 -22 -134 21 -260 127 -369 23 -25 46 -59 50 -77 3 -17 12
-34 19 -36 7 -3 16 -19 19 -36 4 -17 16 -39 27 -48 11 -10 20 -26 20 -37 0
-11 20 -41 44 -66 24 -25 87 -114 141 -198 83 -131 105 -158 152 -188 29 -20
67 -56 84 -80 36 -52 74 -151 83 -216 7 -49 38 -98 62 -98 10 0 14 -13 14 -46
0 -42 -1 -45 -22 -38 -42 13 -73 32 -131 83 -60 53 -106 81 -130 81 -16 0 -49
-70 -68 -143 -18 -72 -6 -216 25 -312 14 -45 30 -126 35 -186 11 -120 22 -176
53 -269 65 -201 194 -364 376 -476 160 -98 248 -190 277 -287 12 -41 14 -84 9
-216 -7 -191 1 -218 72 -255 36 -19 54 -21 229 -19 217 3 323 17 485 62 127
36 154 34 186 -14 16 -24 15 -27 -12 -66 -63 -89 -76 -120 -82 -184 -11 -141
91 -292 206 -303 56 -5 99 11 187 68 34 22 75 42 91 46 46 9 86 -31 144 -145
107 -207 224 -284 386 -251 76 15 219 83 319 150 83 56 165 96 205 102 24 3
25 0 28 -50 2 -29 -6 -95 -17 -147 -23 -103 -27 -237 -10 -298 6 -21 26 -56
46 -78 121 -133 421 -74 932 183 285 143 310 150 354 99 18 -21 33 -65 52
-148 35 -153 75 -260 131 -359 73 -127 117 -164 200 -164 66 0 125 31 152 79
27 48 38 135 51 391 6 102 16 205 23 230 13 43 15 45 48 42 53 -6 146 -37 276
-93 71 -31 157 -59 214 -70 152 -31 211 -71 238 -159 6 -19 16 -136 22 -259
16 -323 36 -422 101 -496 47 -53 114 -69 259 -62 63 4 134 10 158 13 l44 7
-21 -39 c-35 -66 -28 -124 53 -446 95 -373 162 -611 287 -1023 56 -181 144
-476 196 -655 130 -448 230 -739 284 -826 14 -23 19 -50 19 -103 0 -73 9 -93
55 -119 15 -8 27 -78 75 -423 32 -228 72 -531 89 -674 22 -184 41 -299 66
-392 49 -188 60 -282 45 -370 -11 -66 -16 -76 -56 -112 -34 -32 -51 -41 -79
-41 -80 0 -133 53 -342 340 -78 107 -97 142 -137 247 -51 138 -61 199 -136
823 -93 771 -115 903 -271 1580 -197 854 -306 1230 -472 1631 -35 85 -67 166
-71 181 -14 58 -57 74 -101 35 -21 -18 -31 -48 -60 -172 -85 -364 -86 -417
-14 -706 113 -458 170 -750 214 -1108 37 -295 52 -359 180 -776 95 -307 129
-449 160 -661 51 -347 155 -673 322 -1012 65 -132 70 -168 30 -227 -15 -22
-32 -58 -38 -80 -15 -53 -60 -108 -132 -161 -99 -73 -169 -69 -255 14 -112
109 -214 298 -302 559 -48 141 -60 188 -60 239 0 121 -498 2064 -730 2849
-179 606 -275 899 -340 1043 -46 102 -98 199 -110 207 -11 7 -55 -50 -75 -98
-8 -20 -15 -54 -15 -75 0 -80 87 -558 171 -937 98 -442 336 -1383 459 -1815
149 -525 190 -716 183 -860 -4 -71 1 -127 17 -220 24 -134 28 -265 11 -370
-13 -80 -49 -120 -108 -120 -33 0 -46 9 -118 82 -45 46 -96 101 -113 123 l-32
40 0 -30 c0 -36 30 -151 58 -222 72 -188 228 -370 382 -448 25 -12 101 -35
170 -50 188 -40 438 -113 930 -270 58 -18 146 -45 196 -59 51 -14 163 -53 250
-87 396 -153 413 -156 829 -163 464 -7 641 -28 1545 -180 750 -126 927 -145
1425 -153 566 -9 988 24 1733 137 1120 171 1302 188 1982 194 431 4 527 11
780 56 400 73 727 191 1739 629 178 77 341 152 363 167 81 57 138 165 138 264
0 107 -52 187 -179 272 -153 104 -250 221 -309 376 -28 73 -40 120 -78 322
-31 166 -124 309 -238 365 -28 13 -95 33 -149 44 -104 21 -195 58 -274 112
-89 61 -367 272 -533 404 -270 216 -360 272 -520 326 -115 38 -270 49 -385 27
l-71 -14 94 225 c51 124 210 512 352 861 602 1481 843 2031 1216 2780 168 336
222 434 316 576 127 190 211 331 413 699 76 138 156 277 180 310 59 84 83 135
99 208 10 50 33 97 104 214 59 96 101 154 117 161 29 14 41 52 25 82 -9 17 -9
25 4 39 18 20 20 44 6 70 -5 10 -71 90 -146 177 -157 184 -178 221 -178 314 1
81 25 146 101 265 31 50 85 146 120 213 56 110 63 130 63 182 0 63 -19 94 -76
123 -16 8 -179 58 -363 112 -184 53 -351 105 -371 115 -59 30 -88 71 -95 137
-14 121 -49 206 -145 348 -26 39 -59 92 -75 119 -19 34 -38 53 -64 64 l-36 16
0 90 c0 133 -23 174 -195 351 -149 154 -160 173 -160 283 0 81 31 236 85 429
25 87 45 179 45 206 0 45 -1 47 -28 47 -39 0 -52 32 -52 125 0 57 -5 82 -20
107 -16 26 -20 51 -20 116 0 56 -4 82 -12 82 -6 0 -22 10 -35 22 -42 40 -48
17 -49 -195 -1 -187 -10 -254 -37 -287 -14 -19 -58 -50 -69 -50 -16 0 -8 97
16 195 46 192 49 212 36 282 -20 117 -97 256 -159 287 -14 7 -55 16 -90 20
-146 16 -183 56 -189 203 l-4 93 53 -16 c30 -9 78 -30 107 -47 62 -37 230
-169 253 -199 10 -13 23 -19 33 -15 22 9 20 27 -4 27 -13 0 -22 10 -29 36 -17
60 -51 101 -151 178 -52 41 -104 84 -115 96 -11 12 -38 31 -60 42 -22 11 -69
46 -104 77 -304 269 -576 385 -1206 514 l-109 22 -53 70 c-242 318 -456 448
-773 470 -174 12 -287 50 -550 186 -178 92 -195 106 -186 144 9 36 28 40 110
26 39 -7 162 -16 273 -21 319 -15 398 -38 583 -175 125 -91 217 -147 309 -185
71 -29 200 -65 207 -57 3 3 -157 166 -354 363 -453 454 -602 628 -783 921
-115 186 -209 272 -384 354 -80 38 -247 87 -355 104 l-45 7 65 -59 c64 -59
153 -137 344 -303 155 -134 303 -310 424 -505 52 -84 150 -280 167 -334 7 -23
5 -23 -33 10 -22 19 -147 126 -278 239 -471 406 -873 722 -1449 1140 l-210
153 63 -7 c93 -10 211 -47 437 -136 191 -75 334 -124 341 -117 10 9 -51 78
-93 105 -78 50 -263 134 -468 211 -263 100 -432 186 -699 356 -289 184 -394
246 -509 300 -102 47 -245 97 -331 115 -71 15 -110 47 -134 113 l-20 51 -21
-34z m105 -1815 c193 -33 371 -97 549 -196 134 -74 155 -92 155 -135 0 -50
-14 -55 -126 -44 -134 13 -312 12 -376 -1 -29 -6 -81 -24 -115 -39 -84 -38
-118 -44 -169 -30 -63 18 -117 70 -158 150 -46 93 -55 149 -29 191 22 34 139
119 164 119 9 0 56 -7 105 -15z m5990 -3540 c-15 -23 -52 -42 -62 -32 -3 3 -2
17 2 32 8 33 67 64 72 39 2 -8 -3 -26 -12 -39z m-15398 -3420 c35 -29 46 -67
36 -119 l-6 -36 -50 42 c-57 47 -72 77 -58 113 12 32 40 32 78 0z m109 -180
c2 -6 -3 -20 -12 -30 -14 -20 -15 -20 -35 5 -11 14 -20 29 -20 33 0 12 63 4
67 -8z m263 -103 c0 -2 -13 -15 -30 -29 -21 -17 -30 -34 -30 -54 0 -34 19 -46
126 -77 80 -24 92 -35 101 -86 l6 -36 -64 0 c-51 0 -67 -4 -86 -22 -13 -12
-23 -27 -23 -35 0 -20 -60 -16 -97 7 -33 20 -76 77 -88 118 -7 24 4 29 23 10
10 -10 15 -10 22 2 18 28 10 56 -29 113 -42 59 -41 66 10 86 21 9 159 11 159
3z m90 -451 c3 -2 -8 -1 -25 3 -32 8 -55 30 -55 55 0 10 13 3 37 -20 21 -18
40 -36 43 -38z m3374 -1488 c57 -40 57 -53 2 -53 -53 0 -110 21 -143 52 -31
29 -13 41 52 34 32 -4 64 -16 89 -33z m158 -77 c22 -16 22 -16 -14 -16 -22 0
-45 8 -59 21 l-24 20 37 -5 c21 -2 48 -12 60 -20z m263 -110 c26 -8 65 -29 86
-45 21 -17 45 -31 54 -31 22 0 55 -18 55 -30 0 -19 -59 -11 -70 10 -8 15 -21
20 -54 20 -47 0 -166 53 -174 78 -5 17 43 16 103 -2z m7062 -337 c24 -11 52
-33 63 -47 12 -15 85 -111 163 -213 78 -103 190 -245 249 -317 123 -149 166
-179 244 -168 43 5 44 5 44 -23 0 -15 -9 -70 -20 -122 -11 -52 -20 -116 -20
-144 0 -27 -9 -72 -19 -100 -10 -27 -67 -232 -126 -455 -308 -1171 -764 -2779
-798 -2819 -8 -9 -17 -32 -21 -51 -12 -60 -153 -157 -208 -142 -32 8 -66 64
-118 192 -60 149 -120 421 -120 545 0 78 125 1113 196 1620 40 292 42 402 6
510 -73 220 -88 245 -137 245 -36 0 -74 -36 -80 -78 -4 -20 -19 -93 -35 -162
-61 -260 -95 -447 -306 -1700 -19 -113 -72 -470 -119 -795 -124 -857 -172
-1143 -256 -1519 l-39 -178 -58 -77 c-90 -117 -150 -142 -242 -101 -67 30
-225 141 -236 164 -5 12 -40 37 -77 56 -38 20 -76 44 -84 55 -20 27 -14 96 36
430 53 353 86 619 171 1375 93 826 102 947 132 1750 19 508 17 820 -5 897 -24
86 -159 363 -191 392 -17 16 -41 25 -74 29 -44 4 -53 1 -84 -26 -36 -32 -52
-72 -63 -157 -4 -27 -9 -59 -12 -69 -5 -18 -6 -18 -19 5 -9 16 -13 62 -14 139
-1 215 -23 412 -63 549 l-21 74 29 55 c41 78 117 157 170 178 128 48 307 -47
560 -299 66 -66 147 -140 180 -165 159 -118 438 -216 657 -229 91 -6 100 -4
152 21 42 21 62 39 81 71 37 62 44 94 55 240 12 154 28 223 80 330 33 68 50
90 120 150 124 108 188 127 277 84z m-4723 -610 c20 -17 52 -58 72 -92 195
-325 376 -468 618 -486 120 -9 120 -8 127 -279 3 -119 9 -226 14 -237 25 -61
101 -124 152 -126 10 0 -3 -7 -29 -15 -92 -28 -107 -91 -68 -282 10 -54 24
-173 30 -267 21 -327 235 -2034 340 -2705 26 -166 31 -187 54 -206 13 -12 30
-24 36 -26 7 -2 20 -61 31 -143 48 -351 71 -455 126 -557 25 -46 25 -48 8 -75
-73 -114 -169 -181 -241 -170 -96 16 -213 109 -320 252 -75 103 -145 165 -185
165 -22 0 -12 -66 -99 695 -97 852 -125 1105 -159 1460 -47 472 -60 577 -92
745 -69 353 -209 750 -386 1093 -46 89 -104 152 -151 164 l-24 6 3 496 c3 453
2 499 -14 535 -9 21 -17 40 -17 42 0 3 15 13 33 24 49 30 99 26 141 -11z
m1526 -69 c129 -219 248 -287 431 -247 l66 14 7 -406 c14 -880 49 -1612 112
-2361 33 -406 46 -520 55 -520 4 0 22 30 40 66 30 61 33 77 40 198 4 72 25
514 48 981 23 468 46 860 51 872 5 12 18 27 29 33 19 10 20 8 16 -17 -3 -16
-12 -197 -20 -403 -25 -627 -47 -976 -75 -1205 -6 -44 -15 -210 -20 -370 -5
-159 -17 -414 -26 -565 -9 -151 -17 -459 -18 -685 -3 -383 -4 -415 -24 -480
-18 -62 -28 -77 -84 -130 -35 -33 -87 -72 -115 -88 -71 -38 -189 -67 -305 -74
l-98 -6 0 99 c0 54 9 430 20 834 34 1295 42 1820 38 2510 -4 642 -6 679 -25
760 -40 160 -102 299 -186 410 -48 63 -44 22 -38 420 3 172 1 204 -18 273 -19
72 -19 82 -6 115 17 39 33 62 45 62 4 0 31 -40 60 -90z m-1540 -2529 c50 -398
89 -726 87 -728 -12 -11 -41 15 -61 56 -21 41 -22 49 -10 76 19 44 17 158 -6
252 -11 45 -27 144 -35 220 -9 76 -31 242 -50 368 -58 395 -60 415 -40 460 10
22 19 36 21 30 2 -5 44 -336 94 -734z"/>
<path d="M7997 17171 c-21 -10 -55 -34 -75 -53 -20 -19 -71 -62 -113 -96 -42
-33 -98 -85 -126 -115 l-50 -55 -7 -94 c-12 -177 22 -403 79 -524 33 -68 111
-160 157 -185 27 -15 27 -15 -56 183 -37 86 -74 191 -83 232 -15 70 -15 78 1
121 30 78 84 91 228 54 105 -27 147 -18 173 38 16 33 18 64 16 228 -2 196 -6
251 -24 273 -14 17 -75 14 -120 -7z"/>
<path d="M6910 17111 c-207 -255 -261 -331 -432 -617 -160 -266 -161 -270
-124 -544 8 -63 20 -218 26 -345 11 -253 21 -340 51 -448 11 -40 24 -94 30
-122 14 -64 41 -109 85 -135 27 -17 34 -28 34 -53 0 -34 31 -110 48 -121 16
-10 35 32 28 60 -4 13 -19 38 -35 56 -23 27 -37 68 -74 213 -55 216 -72 331
-63 445 11 161 78 331 170 435 50 56 46 59 71 -60 27 -126 73 -262 123 -360
37 -73 64 -108 139 -183 51 -52 96 -105 99 -118 8 -33 57 -80 91 -89 15 -3 38
-16 51 -27 12 -12 22 -17 22 -11 0 5 -9 18 -20 28 -11 10 -20 27 -20 37 0 28
-27 76 -49 88 -11 5 -31 10 -45 10 -23 0 -26 4 -26 38 0 28 -11 56 -40 101
-52 80 -163 301 -201 400 -58 151 -83 274 -82 406 1 69 8 143 16 175 45 172
85 286 131 375 50 97 51 102 51 185 0 83 -20 200 -33 200 -4 -1 -14 -9 -22
-19z"/>
<path d="M4200 15495 c-19 -19 -42 -35 -53 -35 -10 0 -39 -21 -65 -47 -26 -25
-35 -37 -21 -25 14 12 32 22 40 22 23 1 53 22 98 73 50 55 51 64 1 12z"/>
<path d="M3930 13725 c-7 -8 -21 -15 -33 -15 -28 0 -81 -35 -111 -74 -14 -19
-41 -44 -60 -56 -19 -11 -107 -98 -195 -191 -137 -145 -166 -182 -201 -252
-30 -62 -42 -99 -46 -152 l-6 -70 46 -43 c27 -25 55 -42 69 -42 31 0 88 39
104 70 7 14 32 66 55 115 24 50 87 158 140 240 133 210 219 364 225 405 3 19
15 45 26 58 11 12 16 22 10 22 -6 0 -16 -7 -23 -15z"/>
<path d="M2674 13567 c-25 -14 -132 -145 -192 -234 -98 -145 -190 -374 -227
-563 -49 -255 11 -719 131 -1009 111 -269 296 -490 779 -933 371 -340 858
-778 862 -774 3 2 -1 23 -7 46 -9 34 -49 81 -222 263 -522 549 -1019 1133
-1175 1382 -53 84 -112 216 -134 300 -39 150 -22 409 44 685 l13 55 18 -80
c42 -186 147 -439 255 -618 27 -45 52 -100 56 -122 11 -57 22 -75 56 -87 24
-8 29 -15 29 -43 0 -32 21 -65 40 -65 5 0 17 11 25 24 21 31 6 63 -35 77 -25
9 -28 16 -32 64 -3 40 -14 70 -41 113 -59 96 -133 376 -156 594 -21 192 -8
400 38 583 44 177 46 199 27 249 -28 73 -106 121 -152 93z"/>
<path d="M5265 6405 c56 -741 1232 -4262 1540 -4612 13 -16 25 -22 25 -15 0 7
-22 86 -50 175 -71 234 -180 621 -335 1197 -335 1241 -499 1768 -740 2380
-128 325 -382 878 -430 935 -15 19 -16 16 -10 -60z"/>
<path d="M5345 4220 c6 -31 41 -162 187 -685 50 -181 91 -381 118 -575 39
-283 116 -539 255 -840 34 -74 67 -149 74 -167 20 -51 54 -76 90 -68 38 8 71
48 71 85 0 40 -34 201 -81 380 -76 292 -174 561 -424 1160 -70 168 -165 404
-212 525 -46 121 -81 204 -78 185z"/>
<path d="M5125 3042 c1 -265 3 -275 126 -456 107 -160 195 -265 253 -306 41
-28 66 -37 66 -25 0 3 -23 50 -50 105 -28 56 -103 232 -166 393 -100 251 -200
475 -222 499 -4 4 -7 -91 -7 -210z"/>
</g>
</svg>
